<?xml version="1.0" standalone="no"?>
<!DOCTYPE svg PUBLIC "-//W3C//DTD SVG 20010904//EN"
 "http://www.w3.org/TR/2001/REC-SVG-20010904/DTD/svg10.dtd">
<svg version="1.0" xmlns="http://www.w3.org/2000/svg"
 width="1003.000000pt" height="1003.000000pt" viewBox="0 0 1003.000000 1003.000000"
 preserveAspectRatio="xMidYMid meet">

<g transform="translate(0.000000,1003.000000) scale(0.100000,-0.100000)"
fill="#000000" stroke="none">
<path d="M0 9547 l0 -484 47 -20 c27 -12 71 -27 98 -34 28 -7 55 -16 61 -21 7
-5 34 -20 60 -34 43 -22 61 -25 149 -24 59 0 102 5 106 11 5 8 37 6 110 -5 57
-8 148 -21 201 -28 53 -7 94 -16 92 -20 -3 -4 11 -8 31 -8 19 0 68 -9 107 -20
40 -11 87 -20 105 -20 18 0 33 -4 33 -9 0 -28 93 -18 242 25 26 8 58 14 72 14
15 0 26 6 26 14 0 8 15 15 39 19 22 3 64 16 93 30 29 14 80 31 113 38 33 7 62
16 65 19 3 4 31 12 62 18 32 6 83 23 113 37 31 14 65 25 76 25 12 0 23 8 26
20 3 11 8 20 12 20 6 0 13 29 42 180 13 67 36 105 88 149 31 26 61 73 61 96 0
1 -18 8 -41 15 -42 14 -61 30 -35 30 18 0 38 34 42 70 2 13 13 32 26 41 18 14
20 19 8 22 -8 3 -23 8 -32 11 -10 3 -18 0 -18 -6 0 -9 -3 -9 -11 -1 -14 14
-96 7 -159 -14 -25 -8 -70 -17 -100 -18 -65 -4 -178 -13 -237 -21 -28 -3 -43
-11 -46 -22 -4 -16 -5 -16 -6 1 -1 21 -21 23 -21 2 0 -11 -7 -14 -24 -9 -13 3
-33 1 -44 -5 -23 -12 -179 -16 -234 -6 -23 4 -38 13 -38 21 0 9 -11 14 -27 14
-80 0 -183 10 -201 19 -11 6 -22 7 -26 4 -3 -3 -6 1 -6 10 0 19 -16 23 -22 6
-3 -8 -8 -7 -18 2 -10 9 -43 14 -101 15 -54 1 -96 7 -115 17 -36 19 -78 57
-87 79 -3 9 -19 25 -34 35 -15 9 -39 29 -52 43 -15 15 -33 24 -48 22 -18 -3
-23 1 -23 17 0 12 -5 21 -11 21 -5 0 -7 -5 -3 -12 5 -8 2 -9 -9 -5 -10 3 -17
2 -17 -3 0 -6 -5 -10 -10 -10 -6 0 -9 5 -8 11 2 6 -7 15 -20 20 -13 5 -21 5
-19 1 3 -4 -1 -13 -9 -20 -12 -11 -14 -10 -14 3 0 8 -9 15 -20 15 -11 0 -20 7
-20 15 0 8 -9 15 -20 15 -15 0 -20 7 -20 25 l0 25 -200 0 -200 0 0 -483z"/>
<path d="M4793 10016 c-13 -6 -23 -16 -23 -23 0 -7 -7 -13 -15 -13 -13 0 -21
-14 -13 -22 2 -2 -5 -14 -15 -28 -35 -50 -14 -140 41 -176 21 -15 57 -20 172
-26 80 -4 174 -14 210 -23 36 -9 110 -19 166 -22 83 -4 104 -2 117 11 11 12
17 13 20 3 4 -9 6 -8 6 2 1 11 4 11 16 1 12 -10 15 -10 15 1 0 11 2 11 10 -1
6 -10 10 -11 10 -2 0 19 27 14 43 -8 8 -12 21 -18 29 -15 12 5 33 -19 28 -33
0 -1 7 -16 15 -32 14 -28 14 -32 0 -46 -8 -9 -12 -21 -8 -27 5 -8 8 -7 11 1 3
9 8 10 15 3 16 -12 119 -31 173 -31 23 0 44 -4 46 -8 2 -5 50 -16 108 -26 57
-9 107 -21 110 -26 4 -6 43 -12 88 -14 48 -3 80 -1 76 5 -3 5 21 9 56 9 46 0
66 5 81 19 19 18 54 23 224 36 28 2 72 6 99 9 32 3 59 0 75 -8 36 -19 105 -48
109 -47 1 1 10 -5 18 -14 9 -8 21 -15 28 -15 17 0 73 -53 110 -103 16 -21 50
-60 77 -86 27 -26 49 -52 49 -58 0 -6 7 -16 15 -23 8 -7 20 -30 25 -51 6 -22
15 -39 20 -39 6 0 10 -31 10 -69 0 -60 -3 -72 -22 -85 -12 -8 -22 -23 -23 -33
-1 -25 -15 -44 -26 -38 -5 3 -6 -1 -3 -9 3 -9 10 -13 15 -10 5 3 9 -2 9 -10 0
-9 4 -16 9 -16 5 0 12 -11 15 -25 4 -14 11 -25 16 -25 6 0 10 -6 10 -13 0 -7
9 -18 20 -25 11 -7 20 -17 20 -22 0 -6 15 -32 33 -58 18 -26 52 -86 76 -134
23 -48 49 -92 57 -99 8 -6 14 -17 14 -24 0 -6 8 -27 17 -45 9 -19 20 -50 24
-69 4 -20 12 -49 18 -66 25 -70 51 -170 51 -196 0 -15 7 -61 16 -101 19 -89
21 -245 4 -331 -7 -35 -10 -75 -7 -89 8 -32 37 -45 53 -23 70 96 193 217 242
239 23 10 42 23 42 27 0 4 27 16 60 25 33 9 60 20 60 24 0 4 18 15 40 26 22
10 40 22 40 25 0 6 126 24 223 33 62 5 68 12 33 39 -16 13 -30 35 -31 49 -2
14 -8 35 -15 48 -7 13 -9 37 -5 61 4 25 3 39 -4 39 -22 0 -23 47 -2 86 12 21
21 49 21 61 0 27 15 31 110 32 103 0 100 -1 100 17 0 11 8 14 28 12 15 -2 26
-8 25 -15 -2 -9 11 -13 43 -13 27 0 43 4 39 10 -3 6 1 10 10 10 8 0 24 5 34
12 14 9 36 8 95 -2 42 -7 76 -16 76 -19 0 -4 38 -17 85 -30 47 -14 85 -27 85
-31 0 -4 18 -12 39 -18 34 -11 40 -17 46 -48 3 -20 15 -53 26 -73 20 -38 26
-120 9 -137 -5 -5 -14 -68 -19 -138 -5 -82 -13 -131 -21 -136 -9 -5 -9 -9 -1
-14 6 -4 8 -18 5 -31 -3 -12 -1 -26 5 -29 6 -4 11 -19 11 -34 0 -51 133 -213
191 -234 16 -5 27 -14 24 -18 -3 -5 3 -11 13 -14 9 -3 33 -20 52 -37 19 -16
44 -38 55 -48 11 -9 36 -23 55 -31 19 -8 39 -20 43 -27 4 -7 12 -13 18 -13 10
0 59 -45 59 -54 0 -3 16 -22 35 -43 19 -21 35 -42 35 -47 0 -10 71 -76 81 -76
3 0 18 -11 33 -25 15 -14 33 -25 41 -25 8 0 19 -9 25 -20 6 -11 17 -20 25 -20
8 0 22 -11 31 -25 9 -14 20 -25 25 -25 5 0 9 353 9 824 l0 825 -25 19 c-14 11
-25 25 -25 30 0 6 -8 13 -18 16 -10 4 -39 26 -63 49 -25 24 -62 51 -82 60 -20
10 -37 22 -37 26 0 5 -12 14 -27 20 -53 21 -152 78 -146 85 4 3 0 6 -8 6 -20
1 -90 35 -84 42 3 3 -21 13 -52 23 -32 10 -63 21 -68 26 -12 9 -84 33 -130 44
-16 3 -32 11 -35 16 -6 9 -115 26 -215 32 -33 3 -80 -2 -105 -9 -30 -9 -94
-12 -190 -11 -124 2 -149 -1 -170 -15 -13 -10 -32 -18 -41 -18 -9 0 -33 -16
-54 -35 -47 -45 -63 -102 -71 -255 -6 -118 -19 -170 -42 -170 -7 0 -19 15 -27
33 -7 17 -25 43 -39 56 -29 28 -32 45 -11 81 13 23 14 23 16 5 1 -12 6 -4 13
20 8 26 15 34 19 25 4 -10 6 -8 6 7 1 12 5 24 10 27 4 3 11 32 15 63 4 32 13
67 21 77 8 11 15 28 15 38 0 27 60 115 117 173 60 60 73 70 138 112 47 30 132
103 120 103 -3 0 7 19 22 43 33 49 47 72 71 109 9 15 27 33 40 40 20 10 54 58
57 78 0 6 31 44 56 69 8 9 21 31 29 49 7 18 15 31 17 28 5 -4 54 42 50 48 -1
2 12 15 28 28 39 30 75 69 75 80 0 4 11 13 25 20 13 6 29 23 34 37 5 14 10 20
10 14 2 -22 21 -14 21 8 0 19 4 21 30 16 27 -6 30 -4 31 21 0 24 1 25 9 7 8
-19 9 -19 9 3 1 12 -4 22 -10 22 -5 0 -7 5 -4 10 3 6 17 10 31 10 13 0 24 5
24 10 0 6 -5 10 -12 10 -9 0 -9 3 0 12 7 7 12 16 12 20 0 4 -313 8 -695 8
l-694 0 -7 -49 c-5 -37 -11 -51 -25 -54 -16 -4 -19 -15 -20 -69 -2 -152 17
-318 40 -341 6 -6 11 -26 11 -44 0 -21 6 -36 15 -39 8 -4 15 -14 15 -25 0 -47
67 -139 102 -139 12 0 18 -7 18 -21 0 -11 4 -17 10 -14 5 3 12 -7 15 -22 4
-15 12 -39 18 -52 14 -28 13 -134 -2 -215 -8 -41 -8 -79 -1 -125 6 -36 14
-113 18 -171 l7 -105 -50 1 c-91 1 -95 2 -95 26 0 32 -38 192 -62 263 -12 33
-21 65 -21 72 0 7 -4 10 -9 7 -4 -3 -8 3 -8 13 0 10 -8 35 -19 55 -10 20 -28
63 -41 95 -26 69 -73 166 -100 208 -11 17 -22 35 -26 42 -12 25 -225 235 -276
273 -29 21 -57 43 -63 47 -38 32 -106 73 -137 84 -21 7 -38 16 -38 20 0 4 -25
15 -55 24 -30 10 -55 22 -55 26 0 5 -5 9 -11 9 -5 0 -34 11 -62 24 -29 13 -68
29 -87 36 -19 7 -48 21 -65 31 -16 9 -56 23 -87 30 -32 6 -58 16 -58 20 0 4
-26 13 -57 19 -32 6 -90 22 -129 36 l-70 24 -865 -1 c-613 -1 -871 -5 -886
-13z m3406 -52 c2 -10 9 -22 17 -27 13 -8 34 -67 34 -100 0 -10 -4 -16 -9 -13
-5 4 -12 0 -15 -6 -5 -11 -7 -11 -12 0 -3 6 -10 10 -15 6 -5 -3 -23 -2 -40 1
-39 9 -63 58 -50 103 5 17 7 33 3 36 -3 3 9 6 26 6 18 0 32 5 32 11 0 18 25 4
29 -17z m-1834 -493 c-8 -14 -32 -14 -40 -1 -3 5 0 7 8 4 8 -3 18 0 22 6 4 6
9 9 12 6 3 -2 2 -9 -2 -15z m945 -611 c8 -5 11 -12 8 -16 -4 -3 -14 1 -23 10
-18 17 -9 21 15 6z m26 -30 c15 0 24 -6 24 -15 0 -9 7 -29 16 -46 21 -41 10
-69 -27 -69 -21 0 -29 -5 -29 -17 -1 -10 -7 -1 -15 21 -7 21 -18 43 -24 49
-14 14 -15 50 -1 42 6 -3 7 1 4 9 -3 9 -11 16 -18 16 -6 0 -4 5 4 10 8 5 21 8
28 5 8 -3 25 -5 38 -5z"/>
<path d="M9905 9994 c-12 -68 4 -141 43 -187 19 -23 39 -41 43 -39 5 1 9 -2 9
-8 0 -5 5 -10 10 -10 6 0 10 53 10 140 l0 140 -54 0 -54 0 -7 -36z"/>
<path d="M124 8631 c4 -7 -1 -11 -13 -11 -23 0 -92 -30 -103 -45 -4 -5 -8 -67
-8 -136 0 -142 7 -158 84 -194 22 -10 48 -25 58 -35 14 -12 43 -19 105 -23 47
-3 89 -10 92 -16 28 -44 453 -45 506 -1 8 6 78 18 157 27 79 8 145 19 148 23
3 4 28 10 55 13 73 10 195 39 195 48 0 4 21 10 48 14 56 8 125 26 132 36 8 10
122 49 131 44 4 -3 9 1 12 9 3 8 33 18 68 25 34 6 65 14 68 19 3 5 28 14 54
22 35 9 64 28 104 67 30 29 49 53 42 53 -12 0 -12 2 0 9 18 12 -1 23 -48 28
-68 7 -276 9 -286 2 -6 -4 -50 -9 -98 -12 -62 -2 -91 -8 -98 -18 -5 -8 -9 -10
-9 -6 0 4 -8 3 -19 -2 -52 -28 -831 -36 -831 -8 0 4 -36 7 -79 7 -44 0 -82 4
-85 9 -7 10 -38 18 -116 32 -76 12 -95 16 -95 18 0 2 -40 5 -89 8 -63 4 -86 2
-82 -6z"/>
<path d="M6888 8551 c7 -4 14 -14 16 -22 2 -17 58 -103 69 -108 5 -2 12 -13
17 -25 6 -11 21 -39 35 -61 14 -22 30 -52 36 -67 6 -16 15 -28 19 -28 5 0 12
-9 15 -21 4 -12 17 -36 29 -54 13 -18 37 -70 55 -116 53 -137 73 -183 87 -204
8 -11 14 -29 14 -40 1 -11 9 -38 20 -60 11 -22 19 -46 20 -53 0 -7 8 -27 17
-45 9 -18 16 -35 15 -39 -1 -5 7 -8 17 -8 16 0 18 6 14 38 -2 20 -11 59 -19
86 -8 27 -14 59 -14 69 0 11 -12 45 -26 74 -14 30 -30 80 -36 111 -11 58 -25
98 -43 118 -41 47 -115 177 -115 201 0 8 -6 16 -14 19 -8 3 -13 14 -11 25 2
12 -2 19 -10 19 -8 0 -27 14 -42 31 -16 18 -40 45 -55 61 -16 17 -28 34 -28
38 0 15 -61 70 -78 70 -13 0 -14 -2 -4 -9z"/>
<path d="M4432 8341 c-11 -7 -10 -10 3 -15 26 -10 93 -7 76 3 -11 7 -10 10 5
14 10 2 -1 5 -26 6 -25 0 -51 -3 -58 -8z"/>
<path d="M5580 8168 c0 -4 4 -8 9 -8 6 0 12 4 15 8 3 5 -1 9 -9 9 -8 0 -15 -4
-15 -9z"/>
<path d="M3117 8119 c7 -7 15 -10 18 -7 3 3 -2 9 -12 12 -14 6 -15 5 -6 -5z"/>
<path d="M5725 8120 c3 -5 8 -10 11 -10 2 0 4 5 4 10 0 6 -5 10 -11 10 -5 0
-7 -4 -4 -10z"/>
<path d="M5807 8079 c7 -7 15 -10 18 -7 3 3 -2 9 -12 12 -14 6 -15 5 -6 -5z"/>
<path d="M2762 8049 c-24 -4 -62 -17 -85 -28 -23 -11 -57 -25 -74 -33 -18 -7
-33 -16 -33 -20 0 -12 18 -10 48 6 15 7 50 17 77 20 51 8 144 45 145 59 0 9
-20 8 -78 -4z"/>
<path d="M4385 8053 c-117 -5 -300 -25 -311 -34 -6 -5 -80 -16 -165 -24 -85
-9 -163 -20 -174 -25 -11 -5 -65 -14 -120 -20 -78 -9 -114 -18 -162 -43 -35
-18 -63 -36 -63 -42 -1 -5 -21 -26 -45 -45 -25 -19 -45 -38 -45 -42 0 -4 -18
-31 -40 -60 -40 -53 -48 -80 -31 -107 8 -13 14 -13 43 2 68 33 289 97 340 97
14 0 28 4 30 10 2 5 37 16 78 25 41 9 78 21 82 28 6 9 8 8 8 -3 0 -12 2 -12 9
-2 4 7 37 17 72 23 35 5 83 12 107 15 23 4 42 12 42 18 0 6 5 4 11 -4 8 -11
12 -12 16 -2 2 6 12 12 21 12 13 0 14 -2 4 -9 -8 -4 40 -11 113 -14 131 -7
248 -23 277 -38 9 -4 122 -11 250 -14 219 -5 288 -14 288 -37 0 -5 13 -8 28
-8 16 0 37 -9 47 -20 16 -18 17 -27 8 -60 -5 -22 -7 -41 -4 -43 3 -2 1 -2 -6
-1 -27 6 -36 -24 -19 -66 9 -22 16 -52 16 -65 0 -14 5 -25 11 -25 5 0 9 -9 7
-20 -2 -10 0 -19 5 -20 45 -2 57 1 57 19 0 10 11 29 25 42 13 13 25 31 25 40
0 9 12 37 26 63 20 36 32 46 52 47 l27 1 -25 7 c-22 7 -19 9 20 13 25 4 66 12
92 19 40 10 57 10 114 -4 37 -10 74 -24 83 -32 9 -9 34 -29 56 -45 22 -16 47
-36 55 -43 13 -13 41 -33 173 -125 48 -33 70 -54 89 -83 9 -14 33 -43 52 -64
20 -21 36 -41 36 -46 0 -4 4 -9 8 -11 4 -1 20 -23 34 -48 14 -25 35 -54 45
-65 19 -22 24 -36 27 -72 0 -11 4 -19 7 -17 8 4 26 -32 33 -68 5 -21 1 -31
-14 -40 -11 -7 -20 -21 -20 -31 0 -13 -5 -17 -14 -14 -10 4 -16 -2 -18 -16 -2
-18 -11 -23 -40 -25 -30 -3 -38 -7 -38 -23 0 -10 5 -19 10 -19 19 0 10 -15
-17 -27 -31 -15 -44 -16 -41 -5 2 4 -1 8 -7 9 -5 2 -10 -5 -11 -15 -3 -54 -5
-63 -13 -57 -5 3 -16 -4 -25 -16 -8 -12 -19 -18 -25 -14 -7 3 -11 -2 -11 -14
0 -12 -4 -21 -10 -21 -18 0 -11 -39 14 -78 12 -20 35 -62 50 -92 15 -30 31
-62 36 -70 34 -54 113 -251 156 -390 40 -130 74 -302 74 -372 0 -78 43 -163
65 -128 3 6 15 10 26 10 10 0 18 3 17 8 -5 12 54 82 69 82 7 0 16 7 19 15 8
21 28 19 49 -5 10 -11 14 -20 9 -20 -5 0 -9 -16 -10 -36 0 -20 -5 -39 -10 -42
-5 -4 -11 -16 -12 -27 -2 -11 -12 -29 -23 -41 -10 -11 -19 -25 -19 -31 0 -6
-7 -16 -15 -23 -8 -7 -12 -16 -9 -21 2 -5 -5 -16 -16 -26 -12 -10 -26 -27 -31
-38 -21 -43 -68 -115 -91 -138 -17 -17 -18 -17 -19 10 -1 27 -1 27 -14 -7 -7
-19 -14 -45 -14 -57 -1 -11 -10 -41 -22 -65 -55 -113 -75 -150 -95 -173 -23
-27 -59 -33 -67 -12 -4 7 -6 8 -6 1 -2 -20 29 -84 40 -84 6 0 13 9 16 19 3 11
17 24 32 29 15 5 40 22 56 36 15 14 31 26 34 26 3 0 16 22 29 50 12 27 28 53
35 57 7 4 17 17 24 28 6 11 45 73 85 138 40 64 79 129 86 143 8 14 20 28 28
31 8 3 14 9 14 14 0 5 16 32 35 59 19 27 35 54 35 60 0 5 9 15 20 22 11 7 20
17 20 23 0 5 23 34 50 63 54 56 103 82 154 82 24 0 27 3 16 10 -11 7 2 10 43
10 31 0 57 -4 57 -10 0 -5 7 -10 15 -10 8 0 15 5 15 10 0 6 18 10 40 10 22 0
40 2 40 5 0 3 -26 32 -57 64 -32 32 -63 65 -69 72 -17 21 -57 54 -90 73 -39
24 -65 77 -74 156 -17 135 -52 345 -61 362 -5 9 -9 29 -9 43 0 26 -27 136 -56
225 -8 25 -14 51 -14 58 0 7 -9 32 -20 54 -11 23 -20 45 -20 50 0 7 -41 96
-59 128 -5 8 -24 45 -42 83 -57 113 -62 122 -71 125 -4 2 -8 9 -8 17 0 7 -7
18 -15 25 -9 7 -23 28 -32 47 -41 87 -331 413 -367 413 -7 0 -24 9 -37 21 -13
11 -36 27 -51 35 -15 8 -39 25 -54 39 -15 14 -33 25 -40 25 -8 0 -14 4 -14 8
0 5 -18 16 -40 26 -22 10 -40 21 -40 26 0 5 -21 16 -47 26 -27 10 -53 23 -59
29 -7 6 -38 17 -70 25 -33 8 -61 17 -64 20 -3 4 -41 15 -85 25 -44 10 -85 22
-90 26 -6 4 -48 15 -95 24 -47 9 -96 20 -110 25 -71 25 -480 44 -715 33z"/>
<path d="M2143 7883 c-29 -2 -53 -8 -53 -12 0 -11 -212 -32 -348 -34 -66 -1
-116 -6 -120 -13 -8 -11 -74 -44 -90 -44 -5 0 -12 -6 -15 -14 -3 -8 -22 -19
-41 -26 -20 -6 -36 -16 -36 -21 0 -5 -9 -9 -19 -9 -11 0 -22 -4 -25 -9 -4 -5
-29 -15 -56 -22 -28 -7 -50 -16 -50 -19 0 -4 -56 -15 -125 -26 -69 -10 -125
-22 -125 -26 0 -4 -17 -8 -38 -8 -21 0 -83 -7 -138 -14 -93 -14 -188 -19 -672
-32 l-192 -6 0 -33 0 -33 86 6 c117 7 284 -15 284 -38 0 -12 -10 -16 -37 -17
-22 -1 -40 -7 -45 -17 -5 -9 -16 -16 -23 -16 -8 0 -15 -4 -15 -8 0 -8 -11 -11
-42 -13 -34 -1 -104 15 -110 26 -4 7 -18 10 -32 8 -13 -3 -27 0 -30 6 -4 6
-14 11 -22 11 -12 0 -14 -29 -14 -170 0 -163 1 -170 20 -170 11 0 20 6 20 13
0 7 3 8 8 2 4 -5 47 -11 97 -13 50 -1 91 -7 93 -12 2 -6 15 -10 28 -10 16 0
24 -6 25 -17 0 -12 2 -13 6 -5 3 9 9 10 17 3 7 -6 36 -16 64 -24 71 -18 108
-53 116 -111 4 -25 11 -46 17 -46 5 0 9 -11 9 -24 0 -14 6 -31 14 -38 15 -16
106 -24 106 -10 0 4 22 14 48 21 26 6 61 18 76 26 16 9 56 22 90 30 33 9 70
20 81 25 11 5 47 17 80 26 72 20 97 35 153 94 23 24 42 38 42 31 0 -9 4 -8 16
3 8 9 22 16 30 16 9 0 53 18 100 40 47 22 89 40 95 40 5 0 9 4 9 9 0 5 26 17
58 27 31 10 59 21 62 25 3 4 39 15 80 24 41 10 84 23 95 29 11 7 44 19 73 26
28 8 52 17 52 20 0 4 18 12 40 19 21 6 45 17 52 24 21 19 56 37 72 37 8 0 19
6 23 13 4 7 27 21 51 31 23 11 42 22 42 26 0 3 15 11 34 18 18 7 38 22 44 35
6 12 11 16 11 10 1 -18 21 -16 21 2 0 9 10 15 26 15 40 0 23 24 -22 32 -21 3
-48 9 -59 11 -11 3 -30 6 -42 6 -20 1 -22 5 -16 33 l6 31 -54 -7 c-30 -4 -66
-9 -80 -10 -32 -3 -51 -15 -44 -27 6 -9 -8 -13 -33 -10 -8 1 -19 -2 -25 -8
-16 -13 -95 -39 -127 -42 -48 -4 -60 0 -61 24 0 16 -2 18 -7 7 -5 -11 -22 -16
-53 -17 -26 0 -51 -3 -57 -7 -6 -3 -38 -6 -72 -5 -33 1 -63 -1 -67 -4 -3 -4
-14 -2 -24 3 -11 6 -20 6 -24 1 -3 -6 -13 -10 -23 -10 -43 1 -132 -15 -132
-22 0 -5 -4 -9 -10 -9 -5 0 -10 9 -10 20 0 16 7 20 33 20 17 0 40 7 50 15 11
7 37 17 60 21 23 3 55 17 72 29 47 36 220 75 292 67 13 -2 31 2 42 7 10 6 42
12 71 15 29 3 56 9 59 15 3 5 35 10 71 12 36 1 74 6 85 10 11 4 33 10 48 14
15 3 25 10 22 15 -3 6 3 10 14 10 12 0 21 3 21 8 0 4 14 13 30 20 17 8 28 17
25 21 -5 9 33 45 56 54 15 6 -82 6 -168 0z m-1695 -431 c-2 -8 -15 -16 -30
-18 -23 -2 -28 1 -28 20 0 19 4 22 31 18 20 -3 29 -9 27 -20z"/>
<path d="M2729 7695 c-3 -2 -25 -6 -50 -9 -71 -7 -134 -19 -139 -25 -13 -15
-53 -31 -79 -31 -41 0 -61 -9 -61 -29 0 -13 12 -16 69 -16 40 0 64 4 58 8 -7
5 -3 7 11 4 12 -3 20 -2 18 2 -12 19 15 33 68 33 31 0 56 5 56 9 0 5 9 9 20 9
11 0 20 4 20 9 0 5 9 13 20 16 22 7 27 25 7 25 -8 0 -16 -2 -18 -5z"/>
<path d="M2170 7644 c0 -8 5 -12 10 -9 6 3 10 10 10 16 0 5 -4 9 -10 9 -5 0
-10 -7 -10 -16z"/>
<path d="M2375 7590 c-3 -5 -12 -7 -19 -4 -20 8 -26 -9 -10 -24 8 -7 14 -8 14
-2 0 5 7 10 15 10 8 0 15 7 15 15 0 17 -6 19 -15 5z"/>
<path d="M4467 7472 c-9 -2 -15 -8 -12 -13 4 -5 -18 -9 -50 -9 -41 0 -57 -4
-62 -16 -4 -10 -13 -13 -32 -9 -16 3 -34 0 -46 -9 -14 -10 -23 -11 -37 -3 -14
9 -21 8 -33 -4 -15 -14 -5 -16 112 -23 70 -3 157 -9 192 -13 47 -4 62 -3 57 5
-4 7 -1 12 9 12 11 0 15 -6 10 -19 -5 -16 0 -19 33 -22 32 -4 38 -1 40 15 0
10 2 20 4 21 6 6 108 -18 108 -25 0 -5 24 -11 53 -15 28 -4 70 -11 91 -17 30
-7 41 -7 47 4 6 9 9 5 9 -13 0 -32 37 -47 59 -24 21 21 7 42 -33 49 -20 4 -36
11 -36 15 0 5 -34 17 -75 26 -41 10 -72 21 -70 26 5 7 -80 29 -115 29 -11 0
-39 6 -62 14 -45 15 -131 24 -161 18z m173 -98 c0 -2 -11 -4 -25 -4 -14 0 -25
4 -25 9 0 4 11 6 25 3 14 -2 25 -6 25 -8z"/>
<path d="M5130 7340 c0 -5 5 -10 10 -10 6 0 10 5 10 10 0 6 -4 10 -10 10 -5 0
-10 -4 -10 -10z"/>
<path d="M8075 7337 c-27 -6 -53 -15 -56 -20 -4 -5 -11 -7 -16 -4 -5 3 -15 -3
-22 -15 -12 -19 -11 -20 26 -14 96 15 378 -3 393 -25 3 -4 28 -12 55 -18 92
-19 110 -24 115 -32 3 -5 37 -16 75 -25 39 -9 78 -21 87 -25 24 -12 41 -11 33
1 -4 6 -10 8 -15 5 -4 -3 -10 4 -13 15 -3 11 -12 20 -21 20 -9 0 -16 5 -16 10
0 6 -18 17 -40 26 -22 9 -40 19 -40 23 0 4 -24 15 -52 26 -29 10 -59 22 -66
28 -38 30 -322 46 -427 24z"/>
<path d="M7467 7267 c-3 -8 -8 -65 -12 -128 -9 -164 -40 -291 -105 -435 -22
-49 -25 -64 -14 -64 8 0 14 6 14 13 0 8 11 20 25 27 14 7 23 15 21 17 -2 2 30
38 71 80 132 135 173 200 173 273 0 29 -4 40 -15 40 -8 0 -15 7 -15 15 0 8 -9
20 -20 27 -11 7 -20 19 -20 26 0 15 -80 122 -91 122 -4 0 -9 -6 -12 -13z"/>
<path d="M3860 7189 c-85 -6 -211 -8 -279 -5 -120 5 -264 -7 -306 -24 -11 -5
-60 -16 -110 -25 -49 -9 -92 -20 -95 -24 -3 -4 -41 -18 -85 -31 -44 -12 -83
-27 -86 -32 -3 -5 -17 -11 -30 -13 -92 -12 -177 -29 -193 -37 -10 -5 -58 -12
-105 -15 -47 -3 -94 -9 -103 -14 -9 -5 -27 -9 -40 -10 -22 0 -22 -1 -3 -9 17
-7 15 -9 -11 -9 -17 -1 -49 -8 -70 -17 -22 -9 -66 -17 -99 -17 -59 0 -60 0
-15 -7 l45 -7 -50 -2 c-27 -2 -59 -4 -70 -6 -11 -1 -68 -8 -127 -16 -62 -7
-108 -17 -108 -23 0 -6 -5 -4 -10 4 -6 10 -10 11 -10 3 0 -9 -16 -13 -45 -13
-25 0 -45 -3 -45 -8 0 -4 -21 -5 -47 -3 -56 4 -148 -14 -183 -37 -27 -17 -33
-20 -80 -29 -16 -3 -30 -10 -30 -15 0 -5 -4 -7 -9 -4 -5 4 -11 0 -14 -6 -5
-18 3 -48 14 -48 5 0 9 -11 9 -24 0 -35 45 -50 123 -42 34 4 80 16 102 26 22
10 55 24 73 32 17 7 32 16 32 20 0 3 36 14 80 24 44 9 80 20 80 25 0 7 28 15
85 26 11 2 63 6 115 9 52 3 97 9 100 13 3 4 39 13 80 20 41 7 107 23 145 36
39 13 87 27 108 30 20 4 37 10 37 14 0 4 30 13 68 20 37 7 79 15 95 17 15 3
27 10 27 16 0 10 76 6 165 -7 27 -5 36 -4 26 3 -22 15 58 20 333 18 185 -1
251 -5 254 -14 5 -16 42 -16 42 1 0 8 3 9 8 1 8 -13 -3 -12 182 -19 146 -6
250 -21 250 -37 0 -4 11 -8 25 -8 14 0 25 -5 25 -11 0 -6 6 -9 13 -6 16 6 114
-15 149 -32 26 -13 43 -47 28 -56 -5 -3 -33 -6 -64 -6 -44 -1 -59 -6 -67 -20
-7 -13 -6 -19 1 -19 5 0 24 -13 42 -30 19 -19 41 -30 59 -30 16 0 39 -11 54
-25 15 -13 43 -29 63 -36 20 -6 45 -20 56 -30 11 -11 25 -19 31 -19 7 0 25
-11 41 -25 16 -14 32 -25 36 -25 16 0 118 -111 124 -134 3 -15 12 -26 19 -26
7 0 25 -20 39 -44 14 -25 35 -48 46 -51 11 -3 20 -12 20 -19 0 -7 9 -21 20
-31 11 -10 20 -22 20 -28 0 -5 8 -17 18 -26 10 -9 25 -31 33 -48 7 -18 20 -33
26 -33 7 0 13 -11 13 -24 0 -30 30 -43 46 -21 10 14 14 12 25 -15 8 -16 20
-30 27 -30 7 0 10 -4 7 -10 -17 -27 -27 -110 -13 -110 16 0 58 -37 51 -44 -4
-4 5 -18 20 -32 18 -16 27 -35 27 -54 0 -17 5 -30 10 -30 6 0 10 -10 10 -23 0
-18 64 -109 89 -127 4 -3 16 -20 26 -37 11 -18 22 -33 26 -33 4 0 10 -20 13
-45 4 -24 11 -47 16 -50 19 -12 36 -61 29 -85 -13 -47 -10 -59 11 -53 16 4 20
0 20 -20 0 -14 5 -29 10 -32 6 -3 10 -14 10 -23 0 -9 11 -28 25 -42 18 -19 26
-40 29 -80 2 -30 9 -68 15 -85 6 -16 14 -38 17 -47 4 -10 14 -18 22 -18 15 0
15 -2 0 -16 -13 -13 -14 -21 -5 -35 8 -14 8 -27 -1 -52 -7 -18 -12 -43 -12
-55 0 -12 -4 -22 -10 -22 -5 0 -10 -9 -10 -19 0 -11 -4 -23 -10 -26 -6 -4 -4
-16 6 -31 15 -23 15 -24 0 -18 -15 6 -14 2 3 -27 22 -36 27 -69 11 -69 -5 0
-10 -8 -11 -17 0 -15 -2 -15 -9 2 -8 19 -9 19 -9 -3 -1 -13 -5 -21 -10 -18 -4
3 -7 18 -5 33 2 16 1 22 -2 16 -9 -21 -23 -15 -17 7 3 12 0 20 -6 20 -7 0 -10
-4 -7 -8 2 -4 0 -14 -6 -22 -8 -13 -9 -12 -5 2 8 23 -16 41 -32 25 -10 -9 -12
-9 -9 3 2 9 -6 16 -19 18 -13 2 -23 10 -23 18 0 8 -4 13 -9 9 -6 -3 -14 3 -20
12 -10 17 -10 17 -11 -2 0 -38 13 -95 20 -90 5 3 6 -4 3 -15 -3 -11 2 -36 12
-56 9 -19 14 -38 11 -41 -3 -4 -6 -1 -6 6 0 7 -4 10 -9 7 -12 -8 -6 -59 8 -64
6 -2 11 -18 11 -35 0 -30 4 -47 33 -142 9 -27 27 -106 41 -174 22 -107 26
-149 26 -309 0 -189 -12 -280 -56 -411 -15 -46 -11 -71 5 -30 18 47 32 74 51
104 11 17 23 37 27 45 4 8 15 21 25 28 10 7 18 20 18 28 0 8 5 14 11 14 5 0
17 15 25 33 20 43 37 71 54 92 8 9 19 25 25 35 14 26 156 255 175 283 8 13 24
37 35 55 11 17 23 32 28 32 4 0 7 6 7 14 0 8 8 21 18 28 9 7 23 24 30 38 28
55 43 76 94 133 69 77 89 97 128 127 18 14 53 44 78 67 41 39 91 63 134 63 9
0 20 5 23 10 3 6 17 10 31 10 13 0 24 5 24 11 0 8 -19 9 -62 3 -35 -4 -73 -7
-85 -8 -13 0 -23 -6 -23 -13 0 -17 -8 -16 -26 2 -9 8 -11 15 -7 15 5 0 19 9
30 19 12 11 47 27 79 36 33 9 74 24 93 32 36 16 148 13 160 -4 3 -5 36 -17 73
-27 37 -10 65 -22 62 -27 -3 -5 14 -9 37 -9 46 0 159 -28 159 -40 0 -4 25 -15
55 -25 30 -11 55 -22 55 -26 0 -3 18 -14 40 -24 22 -10 40 -21 40 -24 0 -4 20
-13 45 -20 24 -7 57 -24 72 -37 15 -13 33 -24 39 -24 6 0 21 -9 33 -20 13 -10
38 -24 57 -30 19 -7 34 -15 34 -19 0 -4 18 -16 40 -26 22 -10 40 -21 40 -25 0
-3 16 -14 35 -23 19 -9 35 -20 35 -25 0 -5 24 -19 53 -32 28 -13 56 -29 60
-37 4 -7 13 -13 20 -13 7 0 25 -11 41 -25 16 -14 32 -25 35 -25 3 0 24 -16 46
-35 22 -19 46 -35 53 -35 6 0 12 -4 12 -10 0 -5 13 -16 30 -25 16 -8 45 -30
63 -48 18 -18 47 -42 65 -52 18 -11 32 -23 32 -27 0 -4 14 -15 31 -23 16 -9
47 -33 68 -53 21 -20 57 -53 81 -72 23 -19 47 -40 53 -45 7 -6 28 -22 47 -35
34 -24 71 -54 94 -76 7 -6 26 -18 42 -27 17 -9 52 -36 79 -61 26 -25 51 -46
55 -46 6 0 26 -16 86 -71 12 -10 26 -19 31 -19 6 0 24 -13 41 -30 18 -16 36
-30 42 -30 5 0 10 -7 10 -15 0 -8 5 -15 10 -15 6 0 22 -11 35 -24 14 -14 38
-32 54 -42 17 -10 28 -21 26 -24 -2 -3 10 -14 26 -24 17 -10 45 -32 62 -50 18
-17 46 -42 64 -54 18 -13 50 -39 72 -60 21 -20 60 -53 85 -72 25 -19 45 -41
46 -47 0 -7 5 -13 10 -13 6 0 37 -26 69 -57 32 -32 66 -65 77 -74 10 -9 33
-31 50 -50 17 -19 53 -53 80 -76 58 -50 141 -121 168 -142 11 -9 35 -31 55
-48 19 -18 43 -36 53 -39 10 -3 18 -12 18 -20 0 -8 6 -14 14 -14 7 0 24 -11
37 -24 13 -12 34 -28 47 -35 12 -7 21 -15 18 -19 -2 -4 7 -12 20 -19 23 -10
24 -9 24 19 0 37 -16 68 -35 68 -18 0 -20 17 -3 22 9 3 9 6 0 12 -7 4 -12 2
-12 -3 0 -6 -7 -11 -16 -11 -8 0 -13 4 -9 9 3 5 -4 12 -15 16 -11 4 -35 20
-52 36 -18 16 -36 29 -41 29 -13 0 -39 28 -41 45 -3 17 -34 53 -60 67 -14 8
-17 7 -11 -2 5 -8 3 -11 -6 -8 -8 3 -13 11 -11 17 1 7 -2 10 -7 7 -5 -4 -21 4
-34 16 -14 13 -50 46 -82 73 -31 28 -110 102 -175 165 -123 119 -161 154 -225
205 -20 17 -54 46 -75 65 -79 73 -167 149 -219 190 -18 14 -41 33 -52 42 -10
10 -23 18 -28 18 -5 0 -23 14 -40 31 -17 17 -35 28 -41 24 -5 -3 -10 1 -10 9
0 10 -6 13 -15 10 -10 -4 -18 3 -25 20 -5 14 -20 28 -35 32 -13 3 -23 9 -21
13 3 4 -12 16 -32 27 -20 10 -58 40 -83 67 -26 26 -52 47 -58 47 -6 0 -11 4
-11 10 0 5 -16 17 -35 26 -19 9 -35 23 -35 30 0 8 -6 14 -12 14 -16 1 -58 35
-58 47 0 5 -16 15 -35 22 -19 7 -33 16 -31 20 3 4 -11 15 -29 25 -19 11 -32
22 -30 26 3 4 -6 11 -19 14 -14 3 -27 14 -30 24 -3 9 -22 26 -41 36 -19 11
-35 23 -35 27 0 4 -15 15 -34 24 -18 9 -44 27 -57 41 -12 13 -26 24 -31 24 -4
0 -16 8 -26 17 -10 10 -35 32 -56 48 -21 17 -44 35 -50 42 -7 6 -29 20 -49 31
-20 10 -34 21 -32 24 3 3 -13 13 -35 23 -25 11 -36 21 -29 26 7 4 -3 11 -25
19 -20 6 -34 15 -32 19 9 13 -10 30 -54 50 -25 11 -40 21 -35 21 6 1 -2 8 -18
16 -15 8 -32 12 -37 9 -6 -4 -13 0 -16 8 -3 9 -14 13 -27 10 -16 -3 -18 -2 -9
5 11 7 9 11 -10 15 -13 4 -33 16 -46 27 -12 11 -22 16 -22 10 0 -5 -8 -10 -17
-10 -14 0 -15 2 -4 9 10 7 5 11 -18 16 -17 3 -33 11 -36 16 -4 5 -17 9 -31 9
-14 0 -22 4 -19 10 3 6 0 10 -7 10 -8 0 -40 13 -73 30 -33 16 -68 30 -78 30
-11 0 -31 8 -45 19 -28 20 -112 51 -137 51 -8 0 -15 4 -15 9 0 6 -26 18 -57
28 -32 9 -60 20 -63 24 -4 6 -65 16 -188 33 -27 4 -254 -11 -297 -19 -16 -4
-31 -10 -33 -16 -5 -14 -62 -11 -62 4 0 19 -54 119 -58 107 -2 -6 6 -31 17
-55 24 -50 28 -99 9 -93 -7 3 -41 60 -76 128 -61 119 -63 126 -65 204 -2 77 0
83 27 114 16 17 34 32 40 32 10 0 29 41 54 121 15 44 15 79 2 79 -15 0 -12 33
6 58 15 22 23 159 10 181 -4 5 -11 54 -16 108 -5 60 -19 124 -34 166 -14 37
-25 68 -25 70 2 5 -57 142 -72 167 -5 8 -11 21 -14 28 -11 28 -17 39 -45 87
-16 28 -40 70 -52 95 -13 25 -28 50 -35 55 -7 6 -34 37 -60 70 -26 34 -58 72
-71 85 -97 105 -119 130 -114 130 2 0 -7 9 -21 20 -15 12 -44 38 -66 58 -61
58 -95 86 -124 101 -15 8 -27 18 -27 22 0 5 -15 16 -32 25 -18 9 -35 20 -38
24 -3 3 -20 15 -39 26 -43 24 -110 84 -94 84 6 0 14 -4 18 -9 3 -5 26 -17 52
-27 25 -10 57 -28 71 -41 14 -13 31 -23 39 -23 8 0 12 -4 9 -8 -3 -4 10 -16
29 -26 19 -10 36 -25 39 -32 3 -8 15 -14 26 -14 11 0 28 -8 38 -17 9 -10 31
-27 47 -37 29 -19 113 -94 144 -128 18 -21 31 -23 31 -5 0 13 -40 43 -53 39
-5 -1 -5 3 -1 9 3 6 -5 21 -20 34 -14 12 -23 25 -19 29 3 3 1 6 -7 6 -7 0 -29
17 -50 38 -48 46 -67 62 -77 62 -4 1 -19 14 -33 30 -13 17 -29 30 -36 30 -6 0
-22 11 -35 24 -13 13 -35 27 -49 31 -14 4 -43 25 -65 46 -22 22 -59 47 -82 57
-24 9 -43 20 -43 23 0 3 -26 14 -57 25 -32 10 -63 24 -69 29 -6 6 -45 19 -87
29 -42 11 -77 23 -77 26 0 4 -44 15 -97 25 -54 10 -102 21 -108 25 -5 4 -62
10 -125 14 -63 3 -126 8 -139 11 -54 10 -337 13 -481 4z m1568 -2734 c-3 -3
-9 2 -12 12 -6 14 -5 15 5 6 7 -7 10 -15 7 -18z m59 -88 c7 -14 8 -30 3 -38
-5 -8 -4 -19 2 -26 8 -10 7 -12 -6 -7 -9 3 -17 11 -17 18 -8 80 -2 97 18 53z
m4298 -1957 c3 -5 1 -10 -4 -10 -6 0 -11 5 -11 10 0 6 2 10 4 10 3 0 8 -4 11
-10z"/>
<path d="M5287 7079 c7 -7 15 -10 18 -7 3 3 -2 9 -12 12 -14 6 -15 5 -6 -5z"/>
<path d="M7201 6434 c0 -11 3 -14 6 -6 3 7 2 16 -1 19 -3 4 -6 -2 -5 -13z"/>
<path d="M7175 6408 c-4 -15 -13 -32 -21 -39 -8 -6 -21 -26 -30 -44 -8 -18
-23 -41 -32 -51 -9 -11 -30 -48 -46 -84 -16 -36 -33 -73 -38 -83 -5 -10 -6
-27 -3 -38 4 -10 2 -19 -3 -19 -5 0 -9 -13 -9 -30 0 -26 2 -27 13 -12 8 9 14
23 14 30 0 8 9 27 21 43 11 16 17 29 14 29 -3 0 4 15 17 32 32 46 60 99 54
105 -2 3 4 20 15 39 10 19 19 39 19 45 0 6 7 26 16 45 9 18 14 39 11 46 -2 7
-8 1 -12 -14z"/>
<path d="M2590 6138 c0 -4 16 -8 35 -8 19 0 35 4 35 9 0 5 -16 9 -35 8 -19 -1
-35 -5 -35 -9z"/>
<path d="M7570 5991 c0 -5 -11 -12 -25 -15 -55 -14 -144 -124 -206 -256 -45
-96 -54 -116 -54 -125 0 -5 24 -8 53 -6 29 1 58 -2 65 -7 7 -5 40 -18 75 -27
34 -10 62 -21 62 -24 0 -4 23 -15 50 -25 28 -10 50 -22 50 -26 0 -4 15 -11 33
-14 19 -3 65 -22 103 -41 38 -19 74 -35 80 -35 7 0 14 -6 17 -14 3 -8 19 -17
36 -21 17 -4 37 -12 44 -19 14 -13 115 -76 123 -76 13 0 149 -93 201 -137 14
-13 31 -23 37 -23 6 0 24 -11 40 -25 16 -14 32 -25 36 -25 3 0 15 -8 26 -18
10 -10 27 -23 37 -28 9 -5 38 -29 65 -52 39 -34 135 -115 225 -188 11 -9 33
-24 50 -35 18 -10 28 -19 22 -19 -5 0 5 -10 24 -22 19 -12 48 -36 65 -53 17
-16 43 -36 59 -44 15 -8 27 -20 27 -26 0 -7 15 -20 33 -30 17 -10 50 -39 72
-66 22 -26 43 -48 47 -48 5 -1 26 -18 47 -38 22 -21 58 -54 80 -73 23 -19 41
-40 41 -47 0 -6 9 -15 20 -18 11 -3 20 -11 20 -16 0 -5 7 -9 16 -9 8 0 13 -3
10 -8 -2 -4 12 -21 31 -37 40 -34 103 -90 168 -150 24 -22 61 -57 84 -77 22
-21 45 -38 51 -38 6 0 9 -4 5 -9 -3 -5 8 -18 25 -27 23 -14 30 -25 30 -50 0
-31 21 -64 41 -64 5 0 9 -6 9 -13 0 -7 9 -18 20 -25 11 -7 20 -18 20 -26 0 -7
7 -19 15 -26 20 -16 19 -99 -1 -125 -12 -16 -18 -18 -34 -7 -24 15 -26 0 -8
-60 9 -30 9 -41 -1 -51 -9 -9 -16 -7 -31 13 -19 24 -20 24 -20 4 0 -12 7 -27
15 -34 19 -16 19 -63 0 -126 -17 -56 -19 -104 -6 -104 5 0 12 -8 14 -17 4 -16
6 -2 12 87 1 14 2 35 3 48 1 12 7 22 13 22 8 0 10 -15 6 -48 -3 -26 -1 -55 4
-63 6 -9 9 5 10 46 1 33 5 74 8 90 l7 30 7 -40 c4 -22 5 -57 4 -78 -1 -21 1
-41 5 -43 5 -3 8 45 8 105 0 70 4 111 10 111 17 0 22 -24 29 -127 4 -70 10
-98 20 -101 14 -5 14 -3 -2 188 -1 16 3 25 13 25 10 0 17 -16 22 -50 5 -27 11
-66 15 -85 13 -66 21 130 22 573 l1 428 -26 24 c-14 13 -34 27 -45 30 -10 3
-21 15 -24 26 -4 10 -10 19 -14 19 -5 0 -48 38 -97 85 -49 47 -92 85 -96 85
-4 0 -8 7 -8 15 0 9 -7 18 -15 21 -8 4 -15 10 -15 14 0 4 -47 55 -104 113 -57
58 -102 107 -100 109 1 2 -10 12 -27 23 -16 11 -29 26 -29 33 0 6 -4 12 -9 12
-12 0 -131 118 -131 130 0 6 -6 10 -14 10 -7 0 -31 19 -52 41 -69 73 -114 117
-146 141 -17 12 -45 38 -62 56 -17 17 -34 32 -38 32 -4 0 -30 21 -58 48 -146
135 -248 222 -263 222 -4 0 -6 3 -3 8 2 4 -13 16 -35 26 -21 11 -39 22 -39 26
0 4 -13 13 -30 20 -16 7 -30 19 -30 26 0 8 -16 22 -35 31 -19 9 -35 20 -35 24
0 4 -20 15 -45 25 -25 9 -45 20 -45 24 0 4 -20 15 -45 24 -25 10 -45 21 -45
26 0 5 -25 16 -55 25 -30 8 -55 19 -55 23 0 5 -42 19 -92 32 -51 13 -96 28
-99 33 -3 4 -64 12 -135 17 -149 10 -212 19 -220 31 -7 12 -34 12 -34 0z"/>
<path d="M3955 5898 c11 -6 22 -14 25 -18 3 -4 21 -15 40 -25 19 -10 37 -21
40 -25 3 -4 20 -15 38 -24 17 -9 32 -20 32 -24 0 -5 16 -16 35 -25 19 -9 35
-21 35 -26 0 -5 16 -16 35 -25 19 -9 35 -21 35 -25 0 -4 16 -16 35 -27 19 -10
35 -24 35 -31 0 -7 3 -13 8 -13 4 0 21 -11 37 -25 74 -63 109 -93 146 -127 21
-21 39 -34 39 -30 0 4 -20 25 -45 47 -25 22 -65 58 -89 80 -47 43 -96 84 -147
125 -18 14 -40 33 -51 43 -10 9 -22 17 -27 17 -4 0 -20 11 -35 25 -15 14 -41
32 -58 41 -17 9 -40 25 -51 35 -12 10 -26 19 -33 19 -7 0 -19 6 -26 13 -16 16
-53 37 -65 37 -4 0 1 -6 12 -12z"/>
<path d="M8800 5794 c8 -10 22 -24 30 -31 16 -13 50 -17 50 -7 0 9 -41 44 -51
44 -4 0 -16 3 -26 7 -16 6 -17 5 -3 -13z"/>
<path d="M9205 5699 c11 -13 27 -28 35 -33 8 -6 28 -25 44 -43 16 -18 36 -33
45 -33 8 0 12 -2 9 -5 -7 -7 170 -185 183 -185 5 0 9 -4 9 -10 0 -5 21 -29 46
-52 25 -24 71 -67 102 -95 30 -29 58 -53 61 -53 4 0 11 -10 16 -22 6 -12 19
-26 29 -32 11 -6 39 -29 62 -51 71 -68 154 -140 164 -143 24 -8 6 16 -42 58
-28 25 -59 52 -67 60 -9 8 -30 24 -46 34 -17 11 -39 31 -50 45 -11 14 -31 35
-43 46 -52 44 -82 76 -82 85 0 6 -4 10 -8 10 -18 0 -123 96 -114 104 3 3 0 6
-6 6 -5 0 -60 48 -120 108 -121 119 -197 190 -227 211 l-20 15 20 -25z"/>
<path d="M2985 5660 c-3 -5 -1 -10 4 -10 6 0 11 5 11 10 0 6 -2 10 -4 10 -3 0
-8 -4 -11 -10z"/>
<path d="M3088 5653 c6 -2 18 -2 25 0 6 3 1 5 -13 5 -14 0 -19 -2 -12 -5z"/>
<path d="M3148 5650 c12 -5 22 -14 22 -20 0 -5 7 -10 15 -10 8 0 15 5 15 10 0
6 10 10 23 11 21 0 21 1 2 9 -11 5 -38 9 -60 9 -34 0 -36 -2 -17 -9z"/>
<path d="M3266 5635 c3 -6 10 -12 17 -13 7 0 30 -5 52 -11 22 -6 54 -11 72
-11 17 0 38 -6 45 -13 13 -12 146 -47 181 -47 9 0 17 -4 17 -9 0 -5 16 -15 35
-22 37 -14 46 -33 20 -43 -8 -3 -15 -10 -15 -16 0 -5 7 -10 15 -10 8 0 15 5
15 11 0 17 31 43 38 33 4 -5 27 -18 52 -29 25 -10 56 -27 69 -37 13 -10 30
-18 37 -18 7 0 18 -8 23 -19 6 -10 23 -21 39 -24 16 -3 36 -12 44 -20 7 -8 25
-20 38 -27 l25 -13 -25 26 c-14 15 -31 27 -37 27 -7 0 -21 8 -32 19 -10 10
-37 27 -60 37 -22 10 -41 21 -41 24 0 4 -20 15 -45 26 -25 10 -45 21 -45 25 0
4 -21 15 -47 25 -27 10 -50 21 -53 24 -3 3 -31 14 -62 25 -32 11 -58 22 -58
26 0 3 -44 14 -97 24 -54 10 -100 21 -103 25 -9 13 -118 18 -114 5z"/>
<path d="M1520 5581 c0 -4 -35 -11 -77 -15 -144 -12 -262 -29 -257 -38 3 -4
-5 -8 -18 -8 -13 0 -30 -5 -38 -10 -11 -7 -3 -10 30 -10 65 0 262 20 285 30
24 10 200 40 233 40 12 0 22 5 22 10 0 6 -37 10 -90 10 -49 0 -90 -4 -90 -9z"/>
<path d="M9167 5480 c6 -21 121 -140 135 -140 5 0 8 -6 8 -14 0 -7 11 -21 23
-29 32 -21 87 -76 87 -88 0 -5 4 -9 9 -9 8 0 36 -27 248 -242 111 -112 152
-150 170 -158 15 -6 84 -64 134 -112 33 -31 39 -33 39 -17 0 25 -25 51 -67 73
-18 9 -33 21 -33 26 0 5 -13 17 -30 27 -16 9 -30 22 -30 29 0 6 -11 16 -25 22
-14 6 -25 18 -25 27 0 8 -4 15 -10 15 -15 0 -50 33 -50 48 0 7 -4 11 -9 7 -5
-3 -27 11 -48 30 -21 19 -41 35 -45 35 -5 0 -8 6 -8 13 0 8 -11 19 -25 25 -14
6 -25 19 -25 27 0 8 -11 21 -25 27 -14 6 -25 17 -25 24 0 7 -10 20 -22 28 -12
9 -20 16 -16 16 3 0 -30 37 -73 82 -43 45 -79 85 -79 89 0 3 -9 9 -20 12 -11
3 -20 12 -20 21 0 9 -5 16 -10 16 -6 0 -35 25 -65 55 -59 59 -76 68 -68 35z"/>
<path d="M251 5449 c-13 -5 -22 -11 -20 -14 8 -7 49 7 49 16 0 5 -1 9 -2 8 -2
0 -14 -5 -27 -10z"/>
<path d="M139 5419 c-10 -20 4 -28 16 -9 3 6 20 10 37 10 39 0 28 13 -12 16
-21 1 -34 -4 -41 -17z"/>
<path d="M3490 5410 c0 -6 7 -10 15 -10 8 0 15 2 15 4 0 2 -7 6 -15 10 -8 3
-15 1 -15 -4z"/>
<path d="M4593 5402 c11 -11 16 -25 13 -31 -4 -5 -1 -13 5 -17 8 -4 9 -3 5 4
-4 7 -2 12 3 12 19 0 11 14 -17 34 l-27 20 18 -22z"/>
<path d="M2536 5403 c-6 -7 -94 -12 -193 -13 -13 0 -23 -4 -23 -9 0 -13 -121
-32 -220 -35 -45 -2 -85 -8 -89 -14 -3 -6 -40 -15 -81 -21 -41 -6 -104 -18
-140 -26 -36 -9 -83 -19 -105 -24 -22 -4 -50 -13 -62 -19 -12 -7 -37 -12 -57
-12 -19 0 -36 -4 -38 -10 -1 -5 -28 -12 -58 -15 -171 -17 -250 -28 -250 -36 0
-8 -49 -16 -137 -23 -28 -2 -66 -11 -85 -20 -20 -11 -34 -13 -36 -6 -5 13 -32
13 -32 0 0 -5 -8 -10 -19 -10 -10 0 -24 -7 -31 -15 -8 -10 -23 -13 -49 -9 -26
4 -43 1 -53 -9 -23 -23 -73 -30 -88 -12 -15 19 -46 20 -53 1 -5 -12 -30 -18
-149 -33 -27 -3 -48 -8 -48 -12 -1 -3 -9 -16 -20 -29 -18 -22 -20 -22 -43 -7
-34 22 -155 11 -177 -16 -11 -13 -34 -19 -90 -23 -89 -6 -75 -3 -94 -22 -12
-12 -16 -37 -16 -109 l0 -93 43 5 c23 4 44 9 47 12 3 3 13 6 23 7 49 2 58 5
64 22 10 26 29 42 51 42 11 0 25 7 32 15 7 8 21 15 31 15 10 0 20 4 23 9 3 5
44 12 91 16 47 4 85 10 85 14 0 4 25 14 55 21 31 7 58 17 61 22 3 4 20 8 38 8
18 0 55 7 82 15 35 11 69 13 118 9 58 -6 71 -4 81 10 11 15 19 15 59 5 39 -9
48 -9 61 5 24 23 71 21 78 -4 3 -13 0 -20 -8 -20 -17 0 -47 -29 -40 -40 6 -9
136 -1 150 10 6 4 87 16 180 25 94 10 172 21 175 26 3 4 25 9 49 11 44 3 72
28 32 28 -12 0 -21 5 -21 10 0 6 11 10 25 10 16 0 25 -6 25 -15 0 -21 23 -19
53 5 14 11 30 20 37 20 6 0 30 13 53 28 23 16 55 32 70 36 15 4 25 11 22 16
-3 6 0 10 7 10 7 0 49 18 92 40 44 22 86 40 93 40 7 0 13 4 13 9 0 5 29 16 65
25 75 19 85 19 85 6 0 -5 -8 -10 -18 -10 -19 0 -62 -50 -62 -72 1 -8 7 -5 15
6 13 17 15 18 15 3 0 -22 47 -23 74 -2 11 8 39 15 63 15 24 0 43 4 43 9 0 12
149 14 204 1 51 -11 124 1 138 24 6 8 8 8 8 -1 0 -7 7 -10 15 -7 10 4 15 0 15
-11 0 -12 6 -16 20 -12 11 3 27 -1 35 -9 9 -9 16 -11 20 -4 4 6 12 10 18 9 7
-2 38 1 70 5 42 6 57 12 58 25 0 14 1 14 7 1 10 -22 79 -24 85 -2 4 14 6 13
12 -5 8 -26 25 -29 44 -10 10 10 11 9 6 -4 -5 -12 1 -16 27 -16 17 0 34 -5 36
-11 2 -7 8 -10 13 -6 5 3 9 0 9 -5 0 -6 9 -11 20 -11 11 0 20 5 20 11 0 6 6 4
14 -4 8 -8 26 -13 40 -12 14 2 26 -1 26 -6 0 -15 27 -10 46 9 17 16 18 16 11
0 -5 -14 -1 -18 18 -18 14 0 25 -5 25 -11 0 -6 8 -9 18 -7 10 3 24 -2 31 -9
11 -13 15 -13 22 -1 6 9 9 4 10 -17 0 -19 3 -25 7 -15 8 16 39 19 61 6 10 -6
12 -5 7 2 -5 8 -2 10 8 6 9 -3 16 -9 16 -13 0 -3 14 -12 30 -19 17 -8 27 -18
24 -24 -4 -6 2 -6 14 1 27 15 29 14 35 -9 3 -11 13 -20 22 -20 10 0 26 -10 36
-22 l19 -21 0 22 c0 12 -7 24 -15 27 -8 4 -15 12 -15 19 0 8 -5 17 -12 21 -7
4 -8 3 -4 -4 5 -8 2 -10 -8 -6 -9 3 -15 9 -14 12 2 22 -4 32 -22 32 -11 0 -20
5 -20 10 0 6 -9 10 -20 10 -12 0 -20 7 -20 16 0 23 -47 64 -81 71 -21 4 -29
11 -29 27 0 19 -5 21 -45 19 -24 -1 -47 2 -50 7 -3 6 -14 10 -24 10 -11 0 -22
10 -26 23 -6 19 -8 19 -12 5 -5 -19 -23 -25 -23 -8 0 6 -10 10 -22 10 -18 0
-20 2 -8 10 8 5 11 13 6 17 -4 4 -13 0 -20 -10 -16 -20 -26 -22 -26 -3 0 9 -9
12 -27 9 -22 -4 -25 -2 -13 6 11 8 -2 10 -48 7 -47 -3 -65 0 -69 10 -6 17 -40
29 -72 25 -20 -2 -23 1 -18 19 3 14 1 20 -6 17 -7 -3 -11 -9 -10 -15 3 -12
-44 -25 -58 -17 -5 4 -44 9 -86 12 -42 3 -82 11 -89 18 -10 9 -47 12 -135 11
-66 0 -123 2 -126 7 -5 9 -18 9 -27 0z m674 -183 c0 -5 -7 -10 -16 -10 -8 0
-12 5 -9 10 3 6 10 10 16 10 5 0 9 -4 9 -10z m-940 -46 c0 -2 -7 -4 -15 -4 -8
0 -15 4 -15 10 0 5 7 7 15 4 8 -4 15 -8 15 -10z m-740 -142 c0 -4 -16 -6 -35
-4 -19 2 -35 6 -35 8 0 2 16 4 35 4 19 0 35 -4 35 -8z m-277 -57 c4 -8 2 -17
-3 -20 -6 -4 -10 3 -10 14 0 25 6 27 13 6z m71 0 c-4 -8 -17 -15 -30 -15 -15
0 -24 6 -24 15 0 10 10 15 30 15 22 0 28 -4 24 -15z m-1170 -196 c-8 -14 -31
-11 -37 4 -4 10 2 13 19 9 13 -2 21 -8 18 -13z"/>
<path d="M4638 5353 c6 -2 9 -9 6 -15 -4 -5 17 -32 45 -59 28 -27 51 -50 51
-53 0 -2 18 -23 39 -47 22 -24 50 -57 64 -74 14 -16 28 -27 31 -24 3 3 -10 23
-29 43 -19 21 -35 40 -35 43 0 2 -23 27 -50 54 -28 28 -48 55 -44 60 3 5 0 8
-8 7 -7 -2 -12 2 -11 9 2 8 -4 10 -14 6 -10 -4 -14 -2 -10 4 8 12 -20 53 -36
52 -9 0 -8 -2 1 -6z"/>
<path d="M4107 5283 c26 -26 54 -37 47 -18 -3 7 -13 16 -22 19 -9 3 -23 9 -31
12 -7 4 -5 -2 6 -13z"/>
<path d="M3460 5270 c0 -5 7 -10 15 -10 8 0 15 5 15 10 0 6 -7 10 -15 10 -8 0
-15 -4 -15 -10z"/>
<path d="M4237 5189 c7 -7 15 -10 18 -7 3 3 -2 9 -12 12 -14 6 -15 5 -6 -5z"/>
<path d="M3808 5133 c7 -3 16 -2 19 1 4 3 -2 6 -13 5 -11 0 -14 -3 -6 -6z"/>
<path d="M3746 5115 c-3 -9 0 -15 9 -15 9 0 12 6 9 15 -4 8 -7 15 -9 15 -2 0
-5 -7 -9 -15z"/>
<path d="M6083 5073 c4 -6 0 -16 -8 -23 -8 -7 -15 -24 -15 -38 0 -23 2 -24 14
-12 19 21 28 67 14 76 -6 4 -8 3 -5 -3z"/>
<path d="M4892 5044 c10 -10 20 -15 24 -12 3 4 -5 12 -18 18 -22 12 -22 12 -6
-6z"/>
<path d="M4420 5035 c6 -8 50 -53 96 -101 90 -92 127 -138 118 -147 -3 -3 3
-4 13 -3 11 0 18 -5 17 -16 -1 -10 2 -16 6 -13 12 7 148 -159 189 -230 22 -38
22 -39 1 -15 -11 14 -33 43 -47 65 -38 57 -113 149 -113 137 0 -6 19 -38 43
-73 23 -34 52 -80 65 -103 12 -22 31 -54 42 -71 11 -16 22 -37 26 -45 3 -8 9
-24 14 -35 5 -11 11 -27 14 -35 4 -8 15 -28 26 -45 11 -16 23 -37 26 -45 12
-29 17 -45 18 -52 1 -3 4 -10 9 -14 4 -4 7 -18 7 -30 0 -13 9 -43 19 -66 30
-67 51 -190 59 -348 9 -168 22 -166 43 7 11 91 9 160 -6 273 -5 31 -4 32 5 11
20 -45 20 -15 0 55 -21 73 -67 192 -91 234 -4 8 -22 42 -40 75 -17 33 -37 67
-45 76 -8 8 -14 21 -14 27 0 6 -7 15 -16 20 -15 8 -33 35 -53 80 -6 12 -15 22
-21 22 -6 0 -15 11 -20 25 -5 14 -17 28 -25 31 -8 4 -15 11 -15 18 -1 6 -44
52 -96 101 -53 50 -132 125 -176 168 -74 71 -108 98 -78 62z m504 -598 c58
-98 69 -122 53 -108 -9 7 -17 19 -17 26 0 7 -7 19 -16 26 -9 7 -20 22 -25 34
-5 11 -16 30 -25 43 -13 17 -13 21 -3 17 8 -3 23 -20 33 -38z m106 -186 c0
-12 -6 -9 -20 9 -26 33 -26 48 0 25 11 -10 20 -25 20 -34z m20 -44 c0 -7 12
-34 25 -62 14 -27 25 -57 24 -65 0 -8 -9 5 -20 30 -11 25 -27 58 -35 73 -8 16
-14 33 -14 38 0 14 20 0 20 -14z"/>
<path d="M3940 5015 c0 -8 7 -15 15 -15 9 0 12 6 9 15 -4 8 -10 15 -15 15 -5
0 -9 -7 -9 -15z"/>
<path d="M4920 5006 c0 -2 8 -10 18 -17 15 -13 16 -12 3 4 -13 16 -21 21 -21
13z"/>
<path d="M3845 4970 c-3 -5 -2 -10 4 -10 5 0 13 5 16 10 3 6 2 10 -4 10 -5 0
-13 -4 -16 -10z"/>
<path d="M6000 4963 c1 -31 18 -95 29 -106 6 -6 10 12 10 57 0 59 -2 66 -20
66 -12 0 -19 -7 -19 -17z"/>
<path d="M4008 4879 c9 -12 25 -29 34 -37 9 -9 15 -19 12 -24 -3 -4 1 -8 8 -8
7 0 23 -12 35 -27 18 -20 23 -22 23 -9 0 9 -7 19 -15 22 -8 4 -15 13 -15 20 0
8 -11 19 -25 26 -13 6 -22 14 -20 19 5 8 -33 39 -47 39 -4 0 0 -10 10 -21z"/>
<path d="M4110 4851 c0 -5 5 -13 10 -16 6 -3 10 -2 10 4 0 5 -4 13 -10 16 -5
3 -10 2 -10 -4z"/>
<path d="M1380 4820 c0 -5 5 -10 10 -10 6 0 10 5 10 10 0 6 -4 10 -10 10 -5 0
-10 -4 -10 -10z"/>
<path d="M3400 4771 c0 -19 54 -46 71 -36 15 10 -2 34 -33 44 -39 14 -38 14
-38 -8z"/>
<path d="M4130 4766 c0 -7 12 -21 26 -31 29 -18 43 -15 19 5 -8 7 -15 19 -15
26 0 8 -7 14 -15 14 -8 0 -15 -6 -15 -14z"/>
<path d="M4215 4760 c3 -5 8 -10 11 -10 2 0 4 5 4 10 0 6 -5 10 -11 10 -5 0
-7 -4 -4 -10z"/>
<path d="M1428 4743 c6 -2 18 -2 25 0 6 3 1 5 -13 5 -14 0 -19 -2 -12 -5z"/>
<path d="M2110 4745 c-14 -2 -98 -9 -187 -16 -90 -6 -163 -15 -163 -19 0 -3
-65 -15 -145 -25 -80 -10 -145 -21 -145 -25 0 -4 -64 -15 -142 -25 -79 -10
-145 -21 -148 -24 -3 -4 -63 -15 -135 -25 -71 -10 -132 -22 -135 -26 -3 -3
-74 -15 -157 -25 -84 -10 -153 -22 -153 -25 0 -4 -61 -15 -135 -25 -74 -10
-135 -22 -135 -26 0 -3 -63 -15 -140 -25 -77 -10 -140 -22 -140 -26 0 -4 -11
-8 -25 -8 l-25 0 0 -126 0 -126 33 4 c17 1 35 7 39 12 3 5 13 2 22 -7 15 -15
20 -15 54 5 21 11 59 22 87 23 59 3 105 14 105 25 0 14 60 17 78 4 20 -16 36
-18 27 -4 -3 6 3 10 14 10 10 0 22 -6 24 -12 4 -10 8 -9 16 2 9 13 48 15 248
15 131 1 243 2 248 4 25 8 57 0 52 -13 -4 -10 9 -15 53 -20 33 -4 62 -12 66
-18 4 -7 9 -6 14 2 6 9 13 7 29 -9 24 -24 37 -27 43 -9 3 8 14 5 33 -10 19
-16 37 -21 52 -17 17 4 23 1 23 -10 0 -12 6 -15 21 -10 18 6 20 4 15 -13 -8
-25 24 -48 41 -31 8 8 17 7 32 -1 12 -6 27 -8 33 -4 7 4 8 3 4 -5 -4 -6 1 -14
14 -19 12 -4 22 -12 22 -17 0 -6 4 -9 9 -8 4 2 6 -4 3 -12 -8 -21 6 -19 22 3
13 16 14 16 20 -5 3 -13 10 -20 15 -17 5 3 7 -11 4 -31 -3 -26 -1 -34 8 -29 9
5 9 3 0 -7 -7 -7 -13 -20 -13 -29 0 -13 1 -13 10 0 8 13 10 12 10 -2 0 -11 -8
-18 -20 -18 -24 0 -26 -13 -4 -34 17 -17 30 -20 37 -8 2 4 2 1 0 -6 -2 -8 0
-19 4 -25 10 -16 10 -87 1 -87 -4 0 -5 -7 -2 -15 9 -23 -4 -18 -17 6 -6 12 -7
19 -1 15 6 -3 10 11 10 36 1 30 -2 38 -8 28 -6 -8 -10 -22 -10 -31 0 -9 -7
-22 -15 -29 -10 -8 -15 -9 -15 -2 0 6 -6 9 -14 6 -7 -3 -16 2 -19 10 -4 9 -2
16 3 16 10 0 25 39 22 57 -2 8 3 10 13 7 10 -4 13 -13 10 -25 -4 -11 -2 -19 4
-19 19 0 12 45 -9 58 -17 10 -20 9 -26 -13 -3 -14 -10 -22 -15 -20 -5 3 -11
-7 -15 -22 -3 -15 -8 -36 -11 -47 -3 -12 -1 -16 6 -12 6 4 16 -4 23 -18 12
-28 38 -35 38 -11 0 8 4 15 10 15 5 0 7 -7 4 -15 -4 -10 0 -15 14 -15 12 0 26
-8 31 -17 8 -14 10 -15 11 -3 0 10 3 11 8 4 4 -6 28 -14 54 -17 l46 -6 7 39
c7 39 8 40 46 40 42 0 49 -13 27 -53 -11 -21 -11 -21 -18 -2 -6 17 -8 16 -12
-9 -4 -20 -1 -29 11 -33 16 -5 71 -29 103 -44 9 -5 35 -12 58 -15 30 -5 40 -3
41 7 1 8 4 3 9 -11 l7 -25 13 30 c11 28 13 28 20 10 7 -15 9 -16 9 -4 1 17 31
36 31 20 0 -4 7 -8 15 -8 8 0 15 4 15 9 0 4 7 8 15 8 8 0 15 5 15 10 0 6 9 10
20 10 11 0 20 5 20 11 0 8 4 8 13 1 6 -5 27 -9 45 -7 19 1 36 -3 38 -10 3 -6
12 -12 20 -12 10 0 11 4 4 11 -17 17 -11 35 10 29 11 -3 20 -11 20 -19 0 -7
10 -19 22 -25 33 -18 46 -33 51 -60 l4 -24 8 24 c8 23 9 23 15 5 4 -10 3 -29
-3 -42 -8 -16 -7 -26 1 -34 7 -7 12 -20 12 -30 0 -10 7 -21 15 -24 21 -8 19
-34 -2 -34 -23 0 -38 11 -46 30 -3 8 -6 0 -6 -17 -1 -27 3 -33 19 -33 13 0 20
-7 20 -19 0 -22 28 -35 54 -25 9 3 21 26 27 50 9 34 17 45 40 53 16 5 32 17
35 26 8 21 24 19 22 -2 -3 -41 3 -49 44 -60 30 -8 47 -8 55 -1 10 8 13 6 13
-8 1 -25 34 -64 54 -64 9 0 16 -7 16 -15 0 -8 4 -15 9 -15 5 0 14 -13 21 -30
7 -16 16 -30 20 -30 11 0 23 -41 21 -72 -1 -16 3 -29 8 -29 6 -1 17 -2 24 -3
8 -1 11 -16 9 -50 -3 -33 0 -46 7 -42 6 4 11 14 11 22 0 18 16 18 24 -1 3 -8
8 -38 12 -67 6 -51 22 -88 51 -116 7 -8 11 -17 8 -21 -5 -10 75 -94 82 -87 3
3 0 19 -7 35 -16 41 -6 71 23 64 12 -3 30 -13 40 -21 16 -14 20 -14 45 5 15
11 28 30 30 42 5 30 35 42 94 39 50 -3 53 -4 59 -35 3 -18 2 -30 -2 -27 -5 3
-9 -12 -9 -33 0 -33 4 -40 30 -51 35 -16 44 -62 11 -62 -37 0 -49 -38 -37
-115 6 -38 19 -83 28 -100 l17 -30 9 25 c10 27 6 44 -9 35 -15 -10 -10 11 5
24 12 10 15 8 18 -11 2 -15 9 -22 20 -20 18 3 58 -26 58 -43 0 -5 16 -21 35
-34 24 -16 40 -39 52 -72 15 -42 22 -50 50 -55 18 -3 33 -11 33 -17 0 -9 -29
-95 -35 -105 -1 -1 -10 0 -19 4 -10 4 -16 18 -16 38 0 26 -6 34 -32 45 -18 8
-47 24 -64 37 -48 36 -113 59 -126 46 -13 -13 6 -85 29 -113 7 -8 13 -22 13
-30 0 -8 9 -25 20 -39 11 -14 20 -31 20 -38 0 -6 9 -29 20 -49 11 -21 20 -46
20 -55 0 -10 4 -26 9 -36 26 -49 78 -248 107 -407 23 -129 23 -354 0 -480 -19
-102 -49 -199 -69 -223 -14 -17 -33 -50 -46 -80 -6 -12 -18 -25 -26 -28 -8 -4
-15 -12 -15 -20 0 -7 -9 -18 -20 -24 -11 -6 -20 -17 -20 -25 0 -8 -4 -15 -10
-15 -5 0 -22 -11 -37 -25 -62 -56 -79 -71 -91 -87 -11 -14 -10 -16 8 -11 11 3
26 13 33 22 7 10 27 26 45 36 17 11 32 22 32 26 0 3 21 14 48 24 26 10 49 22
52 26 11 16 166 39 264 39 83 0 97 2 92 15 -4 11 1 15 19 15 16 0 25 -6 25
-15 0 -17 12 -19 26 -5 7 7 19 8 36 1 15 -5 53 -13 87 -17 51 -5 62 -4 67 10
3 9 10 13 15 10 5 -3 9 11 9 31 0 50 25 83 71 95 28 8 40 17 45 35 3 14 11 25
17 25 6 0 7 3 4 7 -11 10 13 33 34 33 11 0 19 7 19 15 0 10 11 15 30 16 17 1
35 3 40 4 6 1 17 3 25 4 11 1 15 13 15 40 0 35 -2 39 -22 33 -14 -3 -19 -2
-14 6 4 7 3 12 -3 12 -5 0 -16 3 -24 6 -8 3 -21 -1 -28 -8 -29 -29 -82 -54
-86 -40 -3 6 -11 12 -19 12 -21 0 2 41 27 47 10 3 19 12 19 19 0 8 18 21 40
30 22 9 40 21 40 28 0 19 53 45 98 48 6 1 12 6 12 12 0 6 5 4 10 -4 8 -13 10
-12 10 4 0 11 3 16 6 13 4 -3 16 -1 28 6 27 15 64 18 71 6 4 -5 11 -6 17 -3 7
4 8 2 4 -5 -4 -6 -12 -9 -17 -6 -5 4 -9 -1 -9 -9 0 -18 -40 -31 -70 -23 -11 3
-20 1 -20 -5 0 -5 -4 -7 -9 -4 -10 6 -21 -41 -21 -90 0 -25 -4 -34 -17 -35
-13 0 -14 -2 -4 -6 8 -3 19 1 26 10 10 14 19 14 73 4 34 -6 62 -16 62 -22 0
-5 5 -3 10 5 9 13 11 13 20 0 6 -10 10 -11 10 -2 0 25 19 11 30 -23 9 -27 9
-39 0 -50 -17 -20 -3 -52 24 -57 31 -6 66 8 66 27 0 14 8 16 83 19 15 0 27 4
27 8 0 5 5 8 11 8 5 0 7 -5 4 -10 -3 -6 -2 -10 3 -10 6 0 13 8 16 17 4 10 10
13 14 8 8 -11 19 -14 57 -17 24 -2 29 -9 26 -34 -1 -6 11 -14 26 -17 16 -3 47
-18 71 -34 39 -25 41 -29 25 -41 -13 -9 -37 -11 -83 -6 -62 6 -66 5 -95 -24
-26 -25 -38 -29 -95 -31 -35 -1 -71 -7 -78 -14 -8 -6 -27 -10 -43 -9 -16 1
-29 -2 -29 -8 0 -5 -8 -10 -17 -10 -10 0 -31 -7 -47 -15 -15 -8 -34 -15 -42
-15 -18 0 -28 -20 -26 -53 2 -23 -1 -28 -15 -25 -10 2 -17 10 -16 16 2 7 -7
12 -20 12 -12 0 -47 13 -77 28 -52 26 -97 32 -85 11 4 -5 -2 -9 -13 -9 -10 0
-25 -11 -32 -25 -13 -24 -29 -32 -73 -39 -23 -3 -34 -16 -14 -16 10 0 17 -6
17 -14 0 -8 25 -20 67 -30 37 -10 70 -21 73 -25 3 -5 37 -11 76 -15 39 -4 86
-11 104 -16 29 -8 36 -6 58 18 24 25 31 27 96 25 60 -2 73 0 86 17 15 20 20
20 130 17 39 -1 60 3 72 14 26 26 80 17 115 -20 17 -17 38 -31 47 -31 9 0 16
-6 16 -13 0 -38 184 -215 220 -210 8 1 37 -4 63 -12 27 -8 61 -12 77 -8 22 4
31 1 36 -12 4 -9 17 -20 29 -25 20 -8 22 -13 15 -51 -6 -31 -4 -46 6 -56 8 -8
14 -22 14 -32 0 -9 6 -25 13 -35 12 -16 14 -16 26 -2 8 9 29 16 51 16 28 0 43
-7 63 -30 15 -16 27 -36 27 -44 0 -8 5 -18 10 -21 6 -3 10 -14 10 -24 0 -13
10 -21 31 -25 17 -3 261 -6 542 -6 502 0 510 0 490 19 -11 10 -34 26 -51 35
-18 9 -32 20 -32 24 0 4 -17 16 -37 27 -20 11 -48 30 -61 42 -14 13 -31 23
-38 23 -8 0 -14 4 -14 10 0 5 -14 17 -32 26 -18 9 -38 23 -46 30 -7 8 -17 14
-21 14 -4 0 -16 8 -27 18 -10 10 -34 27 -53 38 -19 10 -42 26 -51 34 -33 30
-57 47 -90 66 -33 19 -42 26 -93 72 -14 12 -29 22 -33 22 -5 0 -22 11 -38 25
-16 14 -32 25 -35 25 -3 0 -19 12 -36 26 -16 14 -42 32 -57 40 -15 8 -39 25
-54 39 -15 14 -33 25 -40 25 -8 0 -14 4 -14 10 0 5 -17 17 -37 26 -21 10 -41
23 -45 30 -4 6 -21 17 -38 24 -16 7 -30 16 -30 21 0 4 -16 13 -35 20 -19 7
-35 18 -35 24 0 5 -20 18 -45 28 -25 11 -45 22 -45 26 0 5 -18 16 -40 26 -22
10 -40 21 -40 25 0 4 -18 15 -40 25 -22 10 -40 21 -40 24 0 4 -17 15 -37 26
-21 11 -42 25 -46 32 -4 7 -14 13 -21 13 -7 0 -21 8 -32 18 -10 10 -36 26 -56
35 -21 10 -38 21 -38 25 0 4 -23 18 -50 31 -28 14 -50 28 -50 32 0 5 -17 16
-37 26 -21 9 -45 25 -55 35 -10 10 -25 18 -33 18 -7 0 -18 6 -22 13 -4 8 -32
22 -60 32 -29 11 -53 22 -53 26 0 4 -19 12 -42 18 -51 13 -75 27 -65 38 5 4
11 3 15 -3 4 -6 17 -14 30 -18 12 -3 31 -9 43 -12 20 -6 20 -5 2 13 -23 22
-114 47 -145 38 -15 -4 -18 -3 -10 3 10 7 9 12 -5 24 -22 19 -87 33 -77 17 5
-8 -5 -10 -32 -5 -22 3 -98 9 -171 12 -103 5 -129 9 -120 19 7 6 19 15 27 18
10 4 8 6 -5 4 -22 -3 -65 36 -65 59 0 9 11 14 34 14 19 0 37 6 39 13 4 9 6 9
6 0 1 -15 31 -18 31 -3 0 6 9 10 20 10 11 0 20 -4 20 -9 0 -9 66 -21 133 -23
21 -1 40 -5 43 -10 3 -5 11 -5 17 1 15 12 52 -13 42 -28 -3 -6 -1 -11 4 -11 6
0 11 8 12 18 0 9 3 12 5 6 3 -7 36 -20 74 -30 39 -10 70 -21 70 -26 0 -4 5 -8
11 -8 8 0 7 5 -1 15 -15 18 -9 28 12 20 10 -4 14 -14 11 -26 -3 -10 0 -19 6
-19 5 0 8 7 5 15 -4 9 0 15 10 15 9 0 15 -3 15 -8 -3 -20 2 -32 15 -32 8 0 22
-8 32 -17 13 -13 19 -14 22 -5 6 19 22 14 22 -7 0 -16 18 -31 36 -31 10 0 3
19 -8 23 -7 2 -5 3 5 2 34 -6 16 16 -30 37 -27 11 -50 24 -53 28 -3 4 -29 15
-57 24 -29 10 -53 22 -53 27 0 5 -9 9 -20 9 -11 0 -20 -4 -20 -10 0 -5 5 -10
11 -10 5 0 8 -4 5 -9 -3 -4 -21 -3 -40 3 -19 6 -33 13 -30 15 9 9 -101 39
-111 30 -7 -5 -18 2 -29 16 -21 28 -41 34 -32 10 4 -13 2 -14 -14 -5 -11 6
-20 15 -20 19 0 5 -9 11 -20 14 -11 3 -20 1 -20 -3 0 -5 8 -11 18 -13 13 -4
11 -5 -5 -6 -14 -1 -23 5 -23 14 0 11 -12 15 -45 15 -29 0 -45 4 -45 13 0 8
-4 7 -10 -3 -9 -13 -11 -13 -21 0 -8 11 -12 12 -16 3 -2 -7 -22 -13 -43 -13
-34 0 -38 3 -44 31 -3 17 -6 35 -6 40 0 5 27 9 60 9 52 0 59 -2 54 -17 -5 -16
-4 -16 6 0 10 15 19 17 53 12 23 -4 46 -11 52 -16 12 -12 45 -11 45 1 0 6 -5
10 -11 10 -5 0 -8 4 -5 9 10 16 -50 23 -156 19 -99 -3 -101 -3 -111 22 -21 51
-31 128 -19 147 4 6 25 13 47 16 l40 4 -46 1 -46 2 -6 63 c-11 99 -17 130 -36
167 -23 45 -31 91 -31 171 1 117 5 140 25 152 40 22 85 82 85 113 0 16 4 34 9
40 34 33 1 224 -56 333 -13 24 -23 50 -23 57 0 15 -46 101 -66 125 -8 8 -14
23 -14 31 0 9 -7 21 -15 28 -8 7 -15 18 -15 24 0 6 -9 17 -20 24 -11 7 -20 19
-20 27 0 8 -16 39 -35 69 -19 30 -35 62 -35 70 0 8 -7 19 -16 24 -15 8 -33 35
-53 80 -6 12 -14 22 -18 22 -5 0 -27 17 -49 38 -23 20 -56 48 -75 62 -18 14
-44 38 -58 53 -15 16 -59 63 -98 104 -40 41 -73 76 -73 79 0 9 -90 94 -99 94
-6 0 -11 7 -11 15 0 8 -5 15 -11 15 -7 0 -19 8 -28 18 -9 11 -34 27 -56 37
-22 11 -42 22 -45 25 -3 4 -36 18 -75 31 -38 13 -72 27 -75 30 -3 4 -41 15
-85 24 -44 10 -84 21 -90 25 -5 4 -47 16 -92 25 -46 10 -83 21 -83 26 0 4 -17
13 -37 19 -21 7 -42 18 -48 25 -5 6 -27 17 -48 24 -20 7 -44 19 -52 27 -8 9
-51 18 -107 24 -152 16 -193 22 -198 31 -3 4 -62 16 -130 26 -69 9 -128 21
-131 26 -4 5 -109 13 -235 17 -207 6 -216 7 -89 9 271 4 354 1 535 -22 8 -1
17 -5 20 -8 6 -8 52 -13 237 -30 73 -7 130 -16 127 -21 -3 -4 7 -8 23 -8 15
-1 39 -7 53 -15 14 -8 35 -14 48 -15 12 0 22 -4 22 -10 0 -5 8 -10 18 -10 10
0 27 -7 38 -15 10 -8 27 -15 37 -15 9 0 17 -4 17 -10 0 -5 3 -9 8 -8 13 3 132
-34 132 -42 0 -4 15 -10 33 -13 60 -10 127 -29 127 -36 0 -4 25 -15 55 -26 31
-10 60 -24 66 -32 6 -7 17 -13 23 -13 17 0 86 -37 80 -43 -3 -2 8 -9 23 -15
15 -5 38 -18 50 -28 12 -11 40 -34 62 -52 52 -44 112 -102 104 -102 -3 0 7
-10 22 -22 40 -31 133 -126 185 -188 25 -30 53 -61 63 -69 9 -9 17 -21 17 -27
0 -7 3 -14 8 -16 11 -5 62 -75 62 -86 0 -5 7 -15 15 -22 9 -7 23 -29 32 -49 9
-20 27 -53 41 -74 36 -60 112 -210 112 -223 0 -7 3 -14 8 -16 16 -7 51 -122
83 -278 22 -106 2 -223 -52 -301 l-18 -26 34 11 c18 6 31 14 29 18 -3 4 6 14
20 23 56 37 73 161 42 308 -8 40 -17 88 -19 107 -2 19 -12 62 -22 95 -9 33
-24 85 -32 115 -9 30 -24 73 -34 96 -11 23 -19 48 -19 57 0 9 -5 19 -10 22 -6
3 -15 26 -21 50 -6 25 -17 50 -25 56 -8 6 -14 20 -14 30 0 10 -4 20 -9 23 -5
3 -25 38 -45 78 -44 88 -58 112 -78 135 -8 10 -18 25 -22 33 -31 67 -180 270
-198 270 -4 0 -8 4 -8 9 0 16 -202 211 -253 244 -16 10 -36 26 -46 35 -31 30
-57 48 -92 68 -19 10 -38 24 -44 30 -5 6 -25 18 -42 25 -18 8 -33 17 -33 22 0
4 -18 14 -40 23 -22 9 -40 19 -40 23 0 4 -22 15 -50 26 -27 11 -50 22 -50 26
0 3 -27 14 -60 24 -33 10 -60 21 -60 25 0 4 -30 16 -67 26 -38 10 -71 22 -74
26 -3 5 -43 16 -90 24 -46 9 -86 20 -89 24 -13 20 -529 49 -630 35z m644 -767
c-3 -5 -9 -6 -14 -3 -5 3 -11 1 -15 -5 -8 -13 -45 -13 -45 1 0 5 5 7 10 4 6
-3 10 -1 10 5 0 5 13 9 29 8 16 -1 27 -6 25 -10z m-1016 -133 c0 -14 -6 -25
-14 -25 -11 0 -11 5 -2 25 6 14 12 25 13 25 2 0 3 -11 3 -25z m-46 -32 c-6 -2
-10 -9 -7 -13 3 -5 1 -11 -5 -15 -5 -3 -10 0 -10 8 0 17 10 27 24 26 6 0 5 -3
-2 -6z m1228 -15 c0 -10 2 -10 9 0 6 10 10 8 14 -8 4 -15 2 -20 -8 -17 -8 4
-11 -1 -8 -12 5 -18 -21 -36 -37 -26 -5 3 -11 1 -15 -5 -3 -5 -17 -10 -31 -10
-16 0 -28 -8 -34 -22 -8 -22 -9 -22 -9 5 -1 16 -5 26 -11 22 -5 -3 -10 -1 -10
4 0 6 -7 11 -15 11 -17 0 -20 16 -5 25 6 3 10 0 11 -7 0 -7 4 -3 9 10 7 17 17
22 45 22 19 0 35 5 35 10 0 6 14 10 30 10 17 0 30 -5 30 -12z m-1190 -24 c0
-8 -4 -12 -10 -9 -5 3 -10 10 -10 16 0 5 5 9 10 9 6 0 10 -7 10 -16z m70 12
c0 -3 -4 -8 -10 -11 -5 -3 -10 -1 -10 4 0 6 5 11 10 11 6 0 10 -2 10 -4z m-22
-43 c9 -16 9 -22 -1 -26 -8 -3 -13 7 -14 26 -3 32 -1 33 15 0z m35 2 c-7 -21
-13 -19 -13 6 0 11 4 18 10 14 5 -3 7 -12 3 -20z m1244 -65 c18 0 23 -6 23
-25 0 -29 -15 -33 -29 -7 -9 15 -10 15 -11 0 0 -9 12 -20 29 -26 24 -8 28 -14
24 -36 -3 -14 -9 -23 -14 -20 -5 3 -9 -2 -9 -11 0 -9 -4 -13 -10 -10 -5 3 -10
1 -10 -4 0 -20 -37 -11 -53 12 -21 30 -42 9 -39 -38 2 -29 -2 -37 -20 -44 -19
-7 -26 -3 -40 21 -10 15 -18 37 -18 48 0 10 -4 22 -10 25 -17 11 -11 37 15 61
14 13 25 21 25 18 0 -3 7 2 16 11 17 17 66 13 72 -6 6 -16 18 -10 19 11 1 11
-2 20 -6 20 -5 0 -6 12 -3 28 l6 27 10 -27 c7 -20 17 -28 33 -28z m-1371 15
c1 -8 -2 -15 -7 -15 -5 0 -9 10 -9 22 0 23 12 17 16 -7z m255 -48 c-8 -8 -11
-5 -11 10 0 12 -3 30 -6 40 -3 10 2 5 11 -11 12 -20 14 -31 6 -39z m-21 3 c0
-11 -2 -20 -4 -20 -2 0 -6 9 -9 20 -3 11 -1 20 4 20 5 0 9 -9 9 -20z m127 -32
c-3 -7 -5 -2 -5 12 0 14 2 19 5 13 2 -7 2 -19 0 -25z m43 -5 c-1 -24 -2 -26
-11 -10 -5 9 -7 22 -4 27 10 17 15 11 15 -17z m830 -245 c0 -5 -6 -8 -14 -8
-9 0 -12 7 -9 21 4 16 8 17 14 7 5 -7 9 -16 9 -20z m254 -433 c7 -20 -3 -45
-19 -45 -13 0 -27 45 -17 55 10 10 30 5 36 -10z m1042 -664 c-2 -40 -16 -52
-16 -14 0 25 6 43 15 43 2 0 2 -13 1 -29z m29 -238 c4 -25 3 -43 -3 -43 -5 0
-12 31 -16 69 -3 39 -11 82 -16 97 -6 15 -7 36 -3 48 5 15 10 0 19 -54 6 -41
15 -94 19 -117z m785 -543 c8 -5 11 -10 5 -10 -5 0 -17 5 -25 10 -8 5 -10 10
-5 10 6 0 17 -5 25 -10z m-28 -275 c12 -15 9 -55 -3 -55 -5 0 -7 -4 -4 -10 6
-10 -27 -15 -76 -12 -15 1 -32 -5 -39 -13 -19 -22 -57 -19 -65 6 -7 22 5 43
12 22 5 -14 63 41 63 60 0 8 3 8 9 -1 7 -11 9 -11 14 1 7 18 77 19 89 2z
m-1017 -314 c0 -8 -10 -17 -22 -22 -19 -7 -23 -5 -23 10 0 10 3 21 7 25 11 11
38 2 38 -13z m-112 -97 c4 -23 3 -24 -10 -11 -9 8 -12 20 -9 26 10 16 13 14
19 -15z"/>
<path d="M1343 4733 c9 -2 23 -2 30 0 6 3 -1 5 -18 5 -16 0 -22 -2 -12 -5z"/>
<path d="M4200 4720 c0 -11 4 -20 9 -20 5 0 16 -2 24 -5 24 -10 15 23 -10 34
-20 9 -23 8 -23 -9z"/>
<path d="M4675 4730 c3 -5 11 -10 16 -10 6 0 7 5 4 10 -3 6 -11 10 -16 10 -6
0 -7 -4 -4 -10z"/>
<path d="M4263 4710 c3 -13 1 -31 -6 -39 -8 -10 -9 -13 0 -8 6 4 14 1 16 -5 3
-7 6 4 6 24 1 20 -4 40 -11 44 -8 5 -9 0 -5 -16z"/>
<path d="M4307 4673 c11 -31 15 -35 24 -22 4 8 3 19 -3 26 -15 19 -28 16 -21
-4z"/>
<path d="M4250 4645 c0 -5 7 -16 16 -26 14 -15 18 -16 30 -4 18 18 18 25 -1
25 -8 0 -15 -6 -15 -12 0 -8 -7 -5 -15 6 -8 11 -15 16 -15 11z"/>
<path d="M4342 4614 c1 -9 9 -19 16 -22 9 -3 13 2 10 14 -1 9 -9 19 -16 22 -9
3 -13 -2 -10 -14z"/>
<path d="M5380 4611 c0 -5 7 -12 16 -15 14 -5 15 -4 4 9 -14 17 -20 19 -20 6z"/>
<path d="M4290 4565 c0 -8 11 -22 24 -31 14 -8 27 -23 29 -32 4 -15 5 -15 6 1
0 9 -8 25 -19 34 -11 10 -20 23 -20 30 0 7 -4 13 -10 13 -5 0 -10 -7 -10 -15z"/>
<path d="M4357 4559 c-6 -24 18 -58 25 -36 3 6 -1 22 -7 35 l-12 23 -6 -22z"/>
<path d="M4448 4538 c7 -7 12 -20 12 -30 0 -15 -7 -17 -45 -13 -27 3 -47 0
-51 -7 -5 -8 -2 -9 10 -5 20 8 35 -21 16 -33 -8 -5 -9 -9 -1 -14 6 -4 11 -12
11 -17 0 -6 -5 -7 -11 -3 -7 4 -10 1 -7 -7 3 -8 11 -13 17 -11 7 1 12 -6 11
-15 -3 -29 0 -47 7 -40 7 7 32 -22 33 -38 0 -5 -5 -3 -10 5 -9 13 -11 13 -19
0 -7 -10 -5 -20 6 -32 10 -11 13 -24 8 -35 -5 -10 -7 -23 -6 -29 0 -6 -6 -17
-14 -24 -13 -11 -15 -8 -15 18 0 17 5 32 12 34 16 6 1 28 -19 28 -13 0 -15
-10 -10 -61 5 -56 4 -60 -13 -56 -11 3 -17 0 -15 -7 2 -6 6 -35 10 -63 5 -44
3 -53 -10 -53 -8 0 -15 9 -15 20 0 11 -7 20 -15 20 -10 0 -15 -10 -15 -30 0
-19 -5 -30 -14 -30 -18 0 -32 -20 -19 -29 24 -17 158 -280 198 -391 63 -172
75 -209 94 -295 74 -324 74 -556 -1 -779 -39 -118 -164 -269 -233 -282 -19 -3
-36 -12 -39 -19 -3 -10 18 -12 102 -7 59 2 109 9 110 13 5 11 112 12 112 1 0
-4 36 -13 80 -20 43 -6 98 -20 122 -30 24 -11 64 -25 91 -32 26 -7 47 -16 47
-21 0 -7 57 -23 85 -24 6 0 12 -3 15 -6 8 -9 117 -59 129 -59 6 0 11 -4 11
-10 0 -5 11 -10 24 -10 13 0 27 -6 30 -12 5 -10 7 -10 12 0 5 10 9 8 18 -8 6
-13 33 -31 61 -42 27 -11 53 -25 58 -31 5 -9 12 -6 22 7 8 11 11 22 6 25 -4 3
-10 20 -13 36 -3 17 -9 38 -13 49 -6 14 -5 18 6 14 8 -2 15 -14 17 -25 2 -15
8 -19 23 -16 10 3 19 6 19 7 0 1 -4 16 -9 34 -8 25 -7 32 5 32 8 0 14 -7 14
-16 0 -13 3 -14 14 -5 10 8 16 9 21 1 3 -5 19 -10 34 -10 34 0 56 -21 39 -38
-8 -8 -4 -13 16 -18 14 -3 26 -12 26 -20 0 -7 10 -18 22 -25 31 -17 88 -71 83
-79 -5 -8 59 -40 80 -40 7 0 16 -8 20 -18 7 -24 46 -42 88 -42 28 0 34 -4 42
-32 7 -24 16 -33 31 -33 12 -1 29 -6 37 -13 13 -11 15 -10 10 7 -3 12 -11 21
-19 21 -7 0 -11 6 -8 14 3 8 -4 24 -15 35 l-21 21 26 0 c26 0 54 20 54 39 0
15 13 14 36 -4 19 -15 19 -15 -1 -30 -11 -9 -30 -18 -42 -22 -13 -3 -23 -11
-23 -18 0 -7 10 -16 23 -20 13 -4 17 -8 9 -12 -6 -2 -10 -9 -6 -14 9 -15 21
-10 27 9 2 11 14 21 25 24 19 5 21 2 18 -30 -3 -26 -10 -38 -26 -44 -18 -7
-21 -5 -16 7 3 9 2 13 -4 10 -15 -10 -12 -45 5 -45 17 0 35 -30 36 -62 0 -22
1 -22 8 -3 5 11 6 26 4 33 -3 8 0 10 10 7 8 -4 22 -24 32 -46 10 -21 22 -40
27 -40 4 -1 11 -2 16 -3 21 -3 52 -44 46 -61 -6 -14 -3 -16 14 -11 11 4 23 2
27 -4 4 -6 13 -9 21 -6 8 3 14 1 14 -4 0 -6 7 -10 15 -10 8 0 15 -9 15 -21 0
-15 5 -20 23 -17 17 2 26 -5 37 -29 8 -18 23 -35 33 -39 10 -3 29 -16 44 -30
15 -14 38 -24 55 -24 16 0 31 -6 34 -15 4 -8 12 -15 19 -15 7 0 25 -10 41 -22
15 -12 33 -23 40 -24 27 -4 84 -37 84 -49 0 -14 30 -25 68 -25 12 0 25 -7 28
-15 4 -8 13 -15 20 -15 8 0 27 -13 43 -29 15 -15 44 -34 64 -40 21 -7 37 -19
37 -27 0 -9 5 -12 11 -9 5 4 20 -4 32 -17 13 -12 38 -32 57 -42 34 -20 54 -34
97 -73 14 -12 40 -27 59 -33 19 -7 32 -16 29 -20 -3 -5 10 -12 29 -16 22 -4
38 -13 41 -25 4 -10 10 -19 14 -19 5 0 21 -12 37 -27 16 -15 38 -29 48 -30 24
-4 46 -22 46 -37 0 -6 23 -20 50 -31 28 -11 50 -26 50 -34 0 -21 66 -81 90
-81 26 0 42 -15 59 -57 7 -18 17 -33 22 -33 5 0 9 -6 9 -14 0 -7 15 -21 34
-30 19 -9 38 -25 41 -36 5 -14 15 -20 38 -20 44 0 80 -21 87 -50 3 -14 24 -35
50 -52 45 -28 54 -32 100 -49 14 -5 34 -25 44 -44 11 -19 22 -32 27 -30 9 6
79 -34 79 -44 0 -23 63 -31 256 -31 l205 0 -7 53 c-3 28 -12 75 -20 102 -22
76 -59 481 -47 512 3 6 11 9 18 7 8 -4 15 3 17 17 5 36 30 45 72 25 20 -9 36
-21 36 -26 0 -5 19 -18 43 -29 23 -11 38 -20 32 -21 -5 0 8 -10 30 -21 22 -12
47 -27 55 -35 8 -7 33 -29 55 -49 21 -19 42 -35 46 -35 3 0 19 -11 35 -25 16
-14 35 -25 42 -25 6 0 12 -6 12 -12 0 -7 18 -23 40 -36 22 -12 40 -26 40 -31
0 -5 11 -12 25 -15 14 -4 35 -18 47 -31 12 -14 26 -25 31 -25 5 0 19 -9 31
-19 57 -52 95 -81 105 -81 6 0 11 -6 11 -13 0 -7 16 -21 35 -31 19 -11 35 -23
35 -28 0 -4 6 -8 13 -8 7 0 27 -13 45 -30 18 -16 35 -30 38 -30 3 0 15 -9 27
-21 35 -33 61 -39 183 -39 l114 0 0 117 0 118 -64 60 c-35 33 -92 85 -126 115
-34 30 -82 73 -106 95 -24 22 -64 58 -89 80 -26 22 -68 60 -95 85 -46 43 -110
100 -194 172 -21 18 -69 62 -107 98 -38 36 -87 81 -109 100 -23 19 -63 55 -89
80 -27 25 -63 56 -81 70 -17 14 -47 39 -65 55 -19 17 -48 41 -66 55 -17 14
-43 35 -57 48 -14 12 -28 22 -31 22 -4 0 -20 12 -38 27 -46 42 -69 60 -100 80
-15 10 -37 26 -47 35 -11 10 -26 18 -33 18 -8 0 -16 7 -20 15 -3 9 -19 23 -35
31 -29 15 -57 35 -89 66 -10 9 -32 24 -48 33 -17 8 -31 19 -31 23 0 4 -18 16
-40 26 -22 11 -40 23 -40 27 0 4 -15 16 -33 27 -34 20 -59 39 -105 80 -14 12
-28 22 -31 22 -3 0 -24 16 -45 35 -22 19 -44 35 -48 35 -5 0 -6 5 -3 10 3 6 2
10 -3 10 -4 0 -24 14 -42 30 -18 17 -36 30 -39 30 -4 0 -35 27 -71 60 -36 33
-70 60 -77 60 -7 0 -13 7 -13 15 0 8 -4 15 -9 15 -5 0 -34 24 -64 53 -56 53
-95 87 -161 142 -19 17 -57 51 -83 77 -27 27 -52 48 -57 48 -5 0 -19 10 -32
22 -22 22 -42 39 -113 96 -19 15 -42 35 -52 44 -10 9 -32 24 -48 33 -17 8 -31
20 -31 25 0 5 -8 11 -18 14 -10 3 -42 28 -71 56 -29 27 -68 55 -87 62 -19 6
-34 15 -34 18 0 4 -18 15 -40 25 -22 10 -40 21 -40 25 0 4 -24 17 -52 31 -29
13 -61 32 -70 42 -10 9 -25 17 -33 17 -9 0 -18 7 -21 15 -3 7 -26 22 -50 31
-24 9 -44 20 -44 24 0 4 -19 15 -42 26 -24 10 -49 24 -55 31 -7 6 -29 17 -48
23 -19 6 -35 15 -35 20 0 5 -31 16 -70 26 -38 10 -70 21 -70 25 0 4 -28 10
-62 14 -35 3 -76 8 -93 10 -40 5 -157 -12 -164 -23 -3 -5 -20 -13 -37 -16 -31
-7 -57 -31 -91 -83 -18 -29 -62 -81 -100 -118 -13 -12 -23 -27 -23 -33 0 -6
-9 -13 -19 -17 -11 -3 -22 -12 -25 -20 -3 -10 -16 -12 -43 -9 -79 11 -75 9
-178 103 -11 11 -30 22 -42 26 -13 3 -23 10 -23 15 0 4 -11 11 -25 14 -25 6
-95 69 -95 85 0 4 -10 18 -22 32 -12 13 -30 34 -41 46 -11 12 -22 36 -26 55
-7 32 -7 32 -30 -31 -13 -35 -34 -85 -48 -110 -14 -25 -39 -71 -55 -101 -16
-30 -34 -61 -41 -68 -13 -17 -32 -49 -46 -77 -5 -12 -16 -27 -25 -34 -14 -12
-16 -9 -16 26 0 21 5 44 10 49 13 13 42 163 34 176 -3 5 4 12 16 15 18 5 21
11 15 32 -4 14 -6 47 -6 74 1 36 -2 47 -14 47 -8 0 -15 -8 -15 -17 0 -15 -2
-16 -10 -3 -13 21 -13 24 10 50 11 13 20 26 20 31 0 4 -9 5 -20 2 -12 -3 -20
-14 -20 -27 0 -12 -6 -30 -12 -39 -11 -14 -12 -3 -10 63 3 75 2 82 -17 87 -12
3 -21 13 -21 22 -1 9 -7 27 -15 41 -14 25 -14 25 -15 3 0 -28 -16 -30 -30 -3
-13 24 -5 41 15 33 10 -3 15 1 15 15 0 11 2 27 5 34 4 9 -4 19 -20 26 -16 8
-25 19 -25 34 1 22 1 22 15 4 11 -15 16 -16 20 -5 14 39 9 89 -9 89 -8 0 -16
7 -20 15 -3 8 -1 15 4 15 15 0 11 32 -6 55 -13 17 -16 18 -24 5 -7 -11 -10 -5
-10 23 0 42 5 45 30 17 17 -20 18 -20 23 12 5 37 -8 82 -22 74 -13 -8 -33 19
-40 57 -4 19 -15 36 -28 42 -23 10 -36 60 -22 85 5 10 8 11 9 3 0 -18 20 -16
20 1 0 8 -14 19 -32 25 -24 9 -29 14 -20 23 15 15 15 28 1 28 -5 0 -7 -5 -3
-12 4 -6 -5 -3 -19 8 -15 10 -27 26 -27 34 0 20 -35 73 -46 68 -4 -2 -12 12
-16 30 -5 17 -13 32 -19 32 -6 0 -9 7 -5 15 6 17 -9 21 -19 5 -3 -5 3 -20 14
-32 22 -23 28 -48 11 -48 -5 0 -10 7 -10 15 0 8 -7 15 -15 15 -8 0 -15 9 -16
20 -4 62 -3 65 14 62 10 -2 17 4 17 12 0 8 9 17 20 21 19 6 19 8 5 36 -9 16
-21 29 -27 29 -9 0 -9 -3 0 -12z m7 -358 c-3 -5 -2 -10 3 -10 11 0 21 -39 14
-58 -6 -20 -17 -14 -17 11 -1 12 -4 32 -9 45 -5 14 -3 22 4 22 6 0 8 -4 5 -10z
m130 -22 c2 -20 1 -20 -11 -3 -7 10 -11 22 -8 27 8 13 17 2 19 -24z m-165 -32
c0 -3 -4 -8 -10 -11 -5 -3 -10 -1 -10 4 0 6 5 11 10 11 6 0 10 -2 10 -4z m10
-86 c0 -5 -4 -10 -10 -10 -5 0 -10 5 -10 10 0 6 5 10 10 10 6 0 10 -4 10 -10z
m-113 -57 c0 -7 -4 -13 -8 -13 -4 0 -9 6 -12 13 -3 8 0 14 7 14 7 0 13 -6 13
-14z m383 -221 c0 -7 -4 -10 -10 -7 -5 3 -10 16 -10 28 0 18 2 19 10 7 5 -8
10 -21 10 -28z m-10 -223 c0 -11 -4 -17 -10 -14 -5 3 -10 13 -10 21 0 8 5 14
10 14 6 0 10 -9 10 -21z m77 -191 c-3 -8 -6 -5 -6 6 -1 11 2 17 5 13 3 -3 4
-12 1 -19z m-73 -20 c8 -14 10 -31 6 -38 -6 -9 -10 -6 -15 9 -4 14 -12 20 -21
17 -10 -4 -14 2 -14 18 0 32 27 28 44 -6z m76 -24 c0 -14 -4 -23 -9 -19 -5 3
-12 -3 -14 -12 -4 -14 -5 -13 -6 5 0 12 4 22 9 22 6 0 10 7 10 15 0 8 2 15 5
15 3 0 5 -12 5 -26z m-40 -184 c0 -5 -5 -10 -11 -10 -5 0 -7 5 -4 10 3 6 8 10
11 10 2 0 4 -4 4 -10z m-5 -119 c-7 -23 -25 -29 -25 -8 0 14 21 39 28 33 2 -3
1 -14 -3 -25z m75 -12 c0 -5 -4 -9 -10 -9 -5 0 -10 7 -10 16 0 8 5 12 10 9 6
-3 10 -10 10 -16z m-33 -11 c-3 -8 -6 -5 -6 6 -1 11 2 17 5 13 3 -3 4 -12 1
-19z m334 -9 c11 -5 45 -14 75 -19 30 -5 61 -16 70 -25 8 -8 33 -18 56 -21 22
-4 42 -13 45 -20 2 -7 19 -16 36 -19 18 -4 50 -17 72 -29 22 -13 56 -29 75
-36 19 -8 41 -20 47 -26 7 -7 18 -15 25 -17 10 -4 9 -8 -2 -16 -12 -8 -13 -12
-2 -23 11 -11 16 -10 25 3 18 24 57 34 57 15 0 -19 32 -29 93 -31 62 -2 81
-19 48 -46 -14 -11 -21 -25 -17 -35 7 -18 26 -10 26 11 0 16 63 37 68 23 2 -4
14 -8 27 -8 13 0 28 -8 34 -17 6 -11 22 -17 45 -17 30 0 38 -4 42 -23 6 -22 7
-23 20 -6 12 16 13 16 14 1 0 -10 12 -19 32 -24 18 -3 43 -18 55 -33 21 -24
23 -24 24 -6 1 17 2 17 6 3 2 -10 11 -18 19 -18 8 0 14 -7 12 -16 -2 -10 3
-19 10 -21 6 -3 12 0 12 6 0 6 8 3 18 -6 10 -10 30 -27 44 -38 20 -14 24 -22
17 -32 -8 -9 -4 -12 17 -10 16 1 29 -2 29 -8 1 -20 16 -34 32 -28 17 7 43 -20
43 -44 0 -7 -11 -18 -25 -23 -26 -10 -35 -39 -12 -41 6 -1 21 -2 32 -3 13 -1
19 -7 17 -18 -2 -10 2 -18 8 -18 5 0 10 -11 10 -25 0 -22 4 -25 35 -25 19 0
35 5 35 10 0 6 -7 10 -15 10 -8 0 -15 7 -15 15 0 8 6 15 14 15 8 0 16 3 19 8
2 4 2 2 1 -5 -3 -14 24 -38 33 -29 4 4 1 11 -7 16 -20 13 -8 12 24 0 16 -6 26
-17 26 -29 0 -11 4 -22 9 -25 5 -3 11 -14 14 -25 3 -14 1 -18 -9 -14 -8 3 -14
-1 -14 -8 0 -11 -2 -11 -10 1 -12 19 -23 7 -16 -18 4 -11 21 -25 39 -32 23 -8
28 -13 18 -19 -9 -6 -11 -16 -6 -32 7 -21 6 -22 -9 -10 -9 7 -16 22 -16 32 0
16 -5 18 -27 13 -16 -4 -32 -12 -36 -18 -5 -6 -5 -1 -2 12 8 29 -6 28 -29 -3
-14 -18 -26 -23 -48 -21 -37 4 -47 15 -25 27 9 6 15 14 12 20 -4 5 2 6 12 2
16 -6 16 -5 4 10 -17 21 -31 22 -31 1 0 -11 -5 -14 -16 -10 -12 5 -14 1 -9
-15 4 -11 2 -26 -4 -33 -12 -14 12 -57 25 -44 4 4 2 13 -4 20 -8 10 9 13 81
14 51 1 84 0 75 -3 -22 -6 -24 -39 -2 -47 23 -9 24 -8 25 17 0 12 3 16 6 10 8
-21 54 -16 60 7 6 23 9 24 68 8 46 -13 60 -28 25 -28 -11 0 -20 5 -20 10 0 6
-7 10 -15 10 -13 0 -19 -16 -17 -41 1 -3 -23 -4 -52 -1 -39 3 -56 0 -68 -12
-21 -20 -24 -20 -50 4 -23 21 -53 26 -63 10 -7 -11 -33 -9 -54 4 -8 5 -7 -1 4
-18 10 -15 15 -29 11 -33 -3 -4 1 -18 10 -31 16 -24 16 -25 -11 -18 -15 4 -33
2 -41 -4 -18 -16 -33 -4 -27 20 3 12 14 20 25 20 14 0 18 5 14 16 -3 9 -6 20
-6 25 0 14 -38 11 -43 -3 -3 -9 -10 -8 -26 6 -31 28 -26 36 19 36 22 0 40 5
40 10 0 6 -10 10 -22 10 -13 0 -33 3 -44 6 -18 5 -22 0 -28 -31 -6 -28 -3 -42
9 -55 10 -11 14 -26 11 -38 -7 -22 -38 -39 -35 -19 3 28 -2 37 -25 37 -13 0
-27 -6 -29 -12 -4 -10 -8 -9 -16 2 -10 13 -11 13 -11 0 -1 -13 -2 -12 -10 1
-6 11 -5 25 3 43 13 29 22 33 30 12 7 -16 47 -28 47 -13 0 6 -7 19 -17 29 -15
17 -15 18 10 18 18 0 27 5 27 16 0 14 -8 16 -42 12 -24 -3 -54 -2 -68 2 -16 5
-19 8 -7 9 9 1 17 8 17 16 0 8 5 15 10 15 6 0 10 -5 10 -11 0 -6 6 -9 13 -6 6
2 20 0 30 -5 15 -8 18 -6 15 8 -2 12 -13 19 -33 20 -17 1 -30 2 -30 3 0 2 -9
4 -20 6 -24 5 -48 -14 -41 -32 3 -7 1 -13 -4 -13 -6 0 -18 -13 -28 -29 -14
-23 -21 -27 -40 -20 -12 5 -22 12 -23 16 0 4 -2 20 -4 35 -3 21 1 28 18 31 12
2 0 3 -27 3 -32 -1 -51 4 -54 12 -3 9 -14 11 -38 6 -30 -5 -34 -4 -34 15 0 11
6 21 14 21 8 0 16 6 19 13 4 10 7 10 18 0 19 -19 28 -16 22 7 -6 24 -53 28
-53 5 0 -10 -10 -15 -29 -15 -24 0 -35 8 -54 41 -22 36 -25 38 -30 19 -6 -25
-30 -22 -35 3 -3 12 9 20 42 29 25 7 46 17 46 24 0 6 13 14 29 17 37 8 63 55
51 94 -8 27 -8 27 -9 -9 -1 -38 -1 -39 -63 -29 -5 0 -8 6 -8 11 0 6 11 8 25 4
19 -5 25 -2 25 10 0 15 -26 22 -72 18 -10 -1 -18 3 -18 8 0 6 9 10 20 10 17 0
18 3 8 25 -12 26 -33 29 -33 4 0 -8 -11 -20 -25 -27 -14 -7 -17 -10 -7 -7 9 2
17 -1 17 -6 0 -7 -11 -9 -26 -6 -16 3 -28 0 -31 -9 -8 -21 -45 -18 -41 4 2 11
11 16 26 14 19 -3 22 1 22 27 0 17 -2 31 -4 31 -17 0 -36 -15 -36 -27 0 -12
-7 -14 -27 -8 -16 3 -29 11 -31 16 -5 13 -40 11 -45 -3 -3 -9 -11 -6 -24 10
-11 12 -25 22 -31 22 -6 0 -16 8 -21 18 -6 9 -11 11 -11 5 0 -20 -60 -17 -60
2 0 10 -7 15 -17 13 -12 -2 -19 4 -21 20 -4 26 -20 28 -38 5 -13 -17 -15 -17
-28 0 -16 20 -32 22 -39 5 -4 -9 -8 -10 -14 -2 -4 6 -16 13 -25 17 -11 4 -15
13 -11 26 3 12 1 21 -6 21 -6 0 -11 -7 -11 -15 0 -11 -11 -15 -36 -15 -27 0
-37 5 -41 20 -5 20 -15 25 -26 13 -4 -3 -2 -12 5 -20 8 -11 7 -12 -5 -7 -20 7
-30 35 -17 48 5 5 10 14 10 19 0 4 -11 -4 -25 -19 -22 -24 -30 -24 -26 -1 0 4
-8 7 -19 7 -11 0 -20 5 -20 10 0 16 -27 12 -34 -5 -9 -25 -29 -17 -24 10 4 21
1 25 -18 25 -13 0 -24 -6 -25 -12 0 -9 -2 -9 -5 -2 -3 6 -15 9 -29 7 -16 -4
-27 1 -37 16 -13 21 -34 28 -40 13 -1 -5 -16 -12 -33 -15 -16 -3 -24 -4 -17
-1 22 10 12 24 -18 24 -16 0 -30 5 -30 10 0 10 13 14 43 11 9 -1 17 4 17 13 0
11 -10 16 -31 16 -27 0 -30 2 -23 23 4 12 7 27 7 34 0 7 4 10 9 7 4 -3 8 6 8
19 0 14 7 30 15 37 8 7 12 16 9 21 -3 5 6 14 20 21 14 6 26 17 26 25 0 7 16
21 35 30 19 9 35 21 35 25 0 12 80 48 108 48 13 0 32 -5 43 -11z m1294 -559
c3 -5 2 -10 -4 -10 -5 0 -13 5 -16 10 -3 6 -2 10 4 10 5 0 13 -4 16 -10z m75
-62 c0 -13 -23 -5 -28 10 -2 7 2 10 12 6 9 -3 16 -11 16 -16z m180 -28 c0 -5
-4 -10 -10 -10 -5 0 -10 5 -10 10 0 6 5 10 10 10 6 0 10 -4 10 -10z m-763 -26
c-3 -3 -12 -4 -19 -1 -8 3 -5 6 6 6 11 1 17 -2 13 -5z m613 -74 c0 -5 -2 -10
-4 -10 -3 0 -8 5 -11 10 -3 6 -1 10 4 10 6 0 11 -4 11 -10z m180 -50 c0 13 1
13 10 0 9 -13 11 -13 19 0 12 17 24 9 16 -11 -3 -8 -19 -14 -35 -15 -24 -1
-30 3 -30 20 0 17 2 18 10 6 9 -13 10 -13 10 0z m134 -36 c9 -22 -3 -32 -14
-14 -12 19 -12 30 -1 30 5 0 12 -7 15 -16z m-871 -100 c33 -10 18 -32 -25 -36
-47 -5 -78 5 -78 27 0 24 37 27 103 9z m997 -115 c0 -5 -4 -9 -10 -9 -5 0 -10
7 -10 16 0 8 5 12 10 9 6 -3 10 -10 10 -16z m48 -42 c2 -10 -3 -17 -12 -17 -9
0 -16 2 -16 4 0 2 -3 12 -6 21 -5 13 -2 16 12 13 10 -2 20 -11 22 -21z m-468
-2 c0 -8 -4 -15 -10 -15 -5 0 -7 7 -4 15 4 8 8 15 10 15 2 0 4 -7 4 -15z m290
-25 c0 -5 -6 -10 -14 -10 -8 0 -18 5 -21 10 -3 6 3 10 14 10 12 0 21 -4 21
-10z m-622 -31 c0 -19 -4 -29 -11 -26 -16 5 -17 57 -2 57 7 0 12 -14 13 -31z
m340 6 c1 -16 -3 -25 -12 -25 -21 0 -27 28 -8 39 9 6 17 11 17 11 0 0 2 -11 3
-25z m138 2 c10 3 14 -3 14 -20 0 -22 -4 -25 -27 -23 -16 2 -34 4 -40 5 -7 0
-13 8 -13 16 0 18 32 37 44 25 5 -5 15 -6 22 -3z m-293 -63 c-8 -21 -33 -17
-33 5 0 14 5 18 19 14 12 -3 17 -11 14 -19z"/>
<path d="M5320 2856 c0 -9 7 -16 16 -16 9 0 14 5 12 12 -6 18 -28 21 -28 4z"/>
<path d="M5750 2650 c0 -5 5 -10 10 -10 6 0 10 5 10 10 0 6 -4 10 -10 10 -5 0
-10 -4 -10 -10z"/>
<path d="M5880 2630 c0 -5 5 -10 10 -10 6 0 10 5 10 10 0 6 -4 10 -10 10 -5 0
-10 -4 -10 -10z"/>
<path d="M5278 2603 c6 -2 18 -2 25 0 6 3 1 5 -13 5 -14 0 -19 -2 -12 -5z"/>
<path d="M5243 2552 c-7 -4 -9 -13 -4 -21 6 -10 10 -9 15 5 8 20 4 25 -11 16z"/>
<path d="M5690 2536 c0 -17 27 -29 35 -16 4 6 3 15 0 20 -9 15 -35 12 -35 -4z"/>
<path d="M6039 2526 c5 -11 15 -22 24 -24 23 -5 10 35 -13 41 -15 4 -17 1 -11
-17z"/>
<path d="M5343 2525 c-9 -10 -10 -16 -2 -21 6 -3 15 0 20 7 18 29 4 40 -18 14z"/>
<path d="M5981 2526 c-10 -12 -8 -16 8 -21 12 -3 21 -14 22 -23 0 -9 3 -12 5
-6 3 6 -2 23 -9 37 -12 23 -16 25 -26 13z"/>
<path d="M5580 2498 c0 -12 38 -10 45 2 4 6 -5 9 -19 8 -15 -1 -26 -6 -26 -10z"/>
<path d="M5470 2480 c0 -5 7 -10 15 -10 8 0 15 5 15 10 0 6 -7 10 -15 10 -8 0
-15 -4 -15 -10z"/>
<path d="M5920 2481 c0 -5 -8 -11 -19 -14 -21 -5 -34 -54 -17 -65 6 -4 16 -16
22 -27 8 -14 19 -19 37 -17 14 2 35 -2 47 -8 45 -24 67 33 30 80 l-20 25 0
-27 c0 -35 -15 -36 -37 -1 -13 19 -14 28 -5 31 23 7 13 32 -13 32 -14 0 -25
-4 -25 -9z"/>
<path d="M5648 2453 c7 -3 16 -2 19 1 4 3 -2 6 -13 5 -11 0 -14 -3 -6 -6z"/>
<path d="M5615 2434 c9 -9 19 -13 23 -10 3 4 0 11 -8 16 -24 15 -33 11 -15 -6z"/>
<path d="M6036 2435 c4 -8 12 -15 20 -15 8 0 14 7 14 15 0 8 -9 15 -20 15 -13
0 -18 -5 -14 -15z"/>
<path d="M5688 2403 c6 -2 18 -2 25 0 6 3 1 5 -13 5 -14 0 -19 -2 -12 -5z"/>
<path d="M6332 2353 c2 -10 11 -19 21 -21 16 -3 17 -1 7 17 -13 25 -33 28 -28
4z"/>
<path d="M5976 2225 c4 -8 8 -15 10 -15 2 0 4 7 4 15 0 8 -4 15 -10 15 -5 0
-7 -7 -4 -15z"/>
<path d="M6363 2215 c-8 -9 -9 -16 -3 -20 14 -8 30 3 30 21 0 18 -11 17 -27
-1z"/>
<path d="M6340 2171 c0 -6 5 -13 10 -16 6 -3 10 1 10 9 0 9 -4 16 -10 16 -5 0
-10 -4 -10 -9z"/>
<path d="M6087 2134 c-13 -13 -7 -24 14 -24 11 0 19 5 17 12 -5 14 -22 21 -31
12z"/>
<path d="M6260 2115 c0 -8 7 -15 15 -15 9 0 12 6 9 15 -4 8 -10 15 -15 15 -5
0 -9 -7 -9 -15z"/>
<path d="M6470 2110 c0 -11 6 -20 13 -20 6 0 22 -3 34 -6 21 -6 21 -4 10 20
-15 32 -57 37 -57 6z"/>
<path d="M6315 2100 c3 -5 12 -10 20 -10 8 0 17 5 20 10 4 6 -5 10 -20 10 -15
0 -24 -4 -20 -10z"/>
<path d="M6550 2075 c0 -8 2 -15 4 -15 2 0 11 -3 20 -6 12 -4 16 0 16 15 0 14
-6 21 -20 21 -11 0 -20 -7 -20 -15z"/>
<path d="M6150 2039 c0 -5 5 -7 10 -4 6 3 10 8 10 11 0 2 -4 4 -10 4 -5 0 -10
-5 -10 -11z"/>
<path d="M6375 2040 c3 -5 13 -10 21 -10 8 0 14 5 14 10 0 6 -9 10 -21 10 -11
0 -17 -4 -14 -10z"/>
<path d="M6710 1960 c0 -5 5 -10 11 -10 5 0 7 5 4 10 -3 6 -8 10 -11 10 -2 0
-4 -4 -4 -10z"/>
<path d="M4480 4410 c0 -11 4 -20 9 -20 5 0 7 9 4 20 -3 11 -7 20 -9 20 -2 0
-4 -9 -4 -20z"/>
<path d="M4590 4411 c0 -5 7 -11 14 -14 10 -4 13 -1 9 9 -6 15 -23 19 -23 5z"/>
<path d="M6150 4180 c0 -6 11 -8 28 -4 39 10 40 14 4 14 -18 0 -32 -5 -32 -10z"/>
<path d="M21 4096 c26 -30 41 -33 59 -11 16 20 14 21 -38 30 l-44 7 23 -26z"/>
<path d="M4272 4088 c1 -15 6 -24 10 -22 4 3 8 -4 8 -15 0 -11 -8 -22 -17 -24
-14 -4 -12 -5 5 -6 26 -1 29 23 7 65 l-15 29 2 -27z"/>
<path d="M7737 3940 c18 -17 34 -30 37 -30 4 0 14 -8 25 -17 10 -10 33 -29 51
-43 18 -14 46 -37 63 -53 18 -15 40 -30 49 -33 10 -3 16 -9 13 -14 -2 -4 9
-13 26 -20 16 -7 34 -21 40 -31 5 -11 15 -19 21 -19 5 0 25 -12 43 -27 48 -41
66 -56 105 -83 19 -13 45 -33 57 -44 12 -12 31 -30 42 -40 16 -15 21 -16 21
-5 -1 8 -26 32 -57 54 -76 55 -113 94 -106 113 4 10 2 13 -5 8 -7 -4 -12 -3
-12 3 0 6 -7 8 -15 4 -9 -3 -15 -2 -14 3 5 20 -16 46 -51 64 -21 11 -41 16
-44 12 -4 -3 -4 1 -1 9 4 10 -3 19 -20 27 -14 6 -25 16 -25 22 0 5 -14 17 -32
26 -17 9 -40 25 -51 35 -12 10 -26 19 -32 19 -7 0 -22 9 -34 20 -13 10 -38 24
-56 30 -18 6 -36 17 -39 25 -3 8 -11 15 -18 15 -7 0 1 -14 19 -30z"/>
<path d="M238 3833 c56 -2 148 -2 205 0 56 1 10 3 -103 3 -113 0 -159 -2 -102
-3z"/>
<path d="M48 3823 c18 -2 45 -2 60 0 15 2 0 4 -33 4 -33 0 -45 -2 -27 -4z"/>
<path d="M673 3823 c15 -2 37 -2 50 0 12 2 0 4 -28 4 -27 0 -38 -2 -22 -4z"/>
<path d="M328 3813 c34 -2 90 -2 125 0 34 2 6 3 -63 3 -69 0 -97 -1 -62 -3z"/>
<path d="M773 3813 c9 -2 25 -2 35 0 9 3 1 5 -18 5 -19 0 -27 -2 -17 -5z"/>
<path d="M50 3798 c0 -4 14 -8 30 -8 17 0 30 4 30 9 0 5 -13 9 -30 9 -16 -1
-30 -5 -30 -10z"/>
<path d="M560 3801 c0 -4 42 -11 93 -15 122 -9 261 -28 267 -36 3 -4 57 -15
120 -24 63 -9 125 -22 138 -28 15 -8 26 -8 33 -1 6 6 -22 16 -88 28 -54 10
-100 22 -103 26 -6 8 -232 39 -286 39 -19 0 -34 5 -34 10 0 6 -30 10 -70 10
-38 0 -70 -4 -70 -9z"/>
<path d="M860 3798 c0 -3 9 -6 20 -5 11 1 20 5 20 9 0 3 -9 6 -20 5 -11 -1
-20 -5 -20 -9z"/>
<path d="M63 3773 c-47 -3 -63 -8 -63 -18 0 -11 12 -15 45 -15 25 0 45 5 45
10 0 12 486 14 494 2 3 -5 49 -12 103 -15 132 -9 293 -29 293 -38 0 -3 51 -14
113 -24 61 -10 114 -21 117 -25 3 -4 50 -15 105 -24 55 -10 104 -21 110 -27
12 -12 45 -12 45 0 0 9 -55 24 -140 37 -22 4 -40 10 -40 15 0 5 -9 9 -21 9
-32 0 -193 33 -199 41 -3 4 -25 9 -50 12 -116 12 -235 31 -240 37 -3 4 -39 10
-80 14 -93 8 -553 15 -637 9z"/>
<path d="M346 3733 c-4 -4 -75 -8 -159 -9 -84 -2 -160 -3 -169 -3 -14 -1 -18
-10 -18 -41 0 -38 14 -54 22 -28 6 17 550 17 594 1 16 -7 52 -14 79 -17 127
-13 230 -29 235 -36 3 -4 43 -12 90 -18 47 -6 96 -14 110 -16 14 -2 45 -7 69
-10 24 -3 49 -10 55 -15 6 -4 31 -11 56 -15 25 -4 52 -9 60 -10 8 -2 42 -6 75
-11 33 -4 62 -11 65 -16 7 -10 139 -39 176 -39 13 0 24 -4 24 -8 0 -5 34 -16
75 -26 41 -10 75 -21 75 -25 0 -4 26 -14 58 -21 31 -8 77 -24 102 -36 25 -12
57 -26 73 -29 15 -4 27 -10 27 -14 0 -4 23 -13 51 -20 28 -7 53 -19 56 -27 3
-8 11 -14 17 -14 14 0 73 -30 137 -69 29 -18 46 -24 46 -16 0 8 -11 19 -24 26
-12 7 -23 16 -23 19 0 4 -20 15 -45 24 -25 10 -45 21 -45 26 0 4 -20 16 -44
26 -24 10 -43 21 -40 25 2 4 -17 12 -42 19 -25 7 -52 19 -59 27 -7 7 -46 20
-86 28 -40 9 -76 19 -79 24 -3 5 -33 17 -67 26 -35 10 -63 21 -63 25 0 4 -12
10 -27 13 -93 19 -132 31 -127 38 3 5 -8 9 -24 9 -38 0 -105 28 -97 40 4 6 -7
10 -25 10 -18 0 -29 -4 -25 -10 3 -5 2 -10 -3 -10 -6 0 -12 6 -15 14 -3 7 -18
16 -34 19 -15 3 -46 11 -68 17 -22 6 -47 12 -55 12 -8 1 -17 4 -20 8 -6 8
-160 40 -194 40 -14 0 -26 4 -28 10 -1 5 -30 12 -63 15 -120 11 -145 16 -145
34 0 14 -2 14 -10 1 -9 -13 -11 -13 -20 0 -6 10 -10 11 -10 3 0 -15 -37 -17
-42 -3 -4 12 -110 20 -272 21 -66 0 -127 4 -136 9 -10 5 -20 6 -24 3z m24 -39
c0 -2 -7 -4 -15 -4 -8 0 -15 4 -15 10 0 5 7 7 15 4 8 -4 15 -8 15 -10z m215 6
c4 -6 -30 -10 -94 -10 -56 0 -103 4 -106 10 -4 6 30 10 94 10 56 0 103 -4 106
-10z m123 -17 c-10 -2 -26 -2 -35 0 -10 3 -2 5 17 5 19 0 27 -2 18 -5z"/>
<path d="M1483 3722 c-9 -6 -6 -11 7 -20 21 -13 26 -6 12 15 -4 7 -13 9 -19 5z"/>
<path d="M5122 3699 c-5 -14 -15 -61 -22 -105 -6 -43 -18 -92 -26 -108 -8 -16
-14 -39 -14 -52 0 -26 20 -74 30 -74 4 0 10 -8 13 -18 2 -11 14 -21 25 -24 16
-5 19 -2 15 11 -3 9 -12 23 -18 31 -34 41 -35 138 -4 263 20 79 21 125 1 76z"/>
<path d="M1531 3701 c-10 -6 -10 -10 -1 -16 13 -8 24 -1 19 14 -3 6 -10 7 -18
2z"/>
<path d="M4771 3694 c0 -11 3 -14 6 -6 3 7 2 16 -1 19 -3 4 -6 -2 -5 -13z"/>
<path d="M4790 3676 c0 -19 5 -38 10 -41 6 -4 10 10 10 34 0 23 -4 41 -10 41
-5 0 -10 -15 -10 -34z"/>
<path d="M4930 3695 c0 -8 5 -15 10 -15 6 0 10 7 10 15 0 8 -4 15 -10 15 -5 0
-10 -7 -10 -15z"/>
<path d="M1802 3645 c0 -16 2 -22 5 -12 2 9 2 23 0 30 -3 6 -5 -1 -5 -18z"/>
<path d="M6204 3658 c-8 -13 -5 -14 39 -21 30 -5 35 -3 25 7 -18 17 -57 26
-64 14z"/>
<path d="M290 3637 c-5 -4 -182 -16 -252 -17 l-38 0 0 -95 0 -95 115 0 c70 0
115 4 115 10 0 13 294 14 318 1 9 -5 49 -13 87 -18 l70 -8 9 -37 c7 -28 6 -45
-5 -65 -16 -33 -48 -62 -67 -63 -7 0 -10 -5 -6 -11 9 -15 -38 -7 -55 10 -21
19 -203 8 -250 -15 -19 -9 -48 -19 -65 -21 -17 -1 -36 -10 -42 -18 -6 -8 -17
-15 -24 -15 -10 0 -10 -3 0 -15 10 -12 8 -13 -11 -10 -23 5 -39 21 -39 41 0
10 -16 11 -53 5 -4 0 -3 -10 3 -21 8 -16 8 -20 -4 -20 -8 0 -19 7 -24 16 -7
13 -12 13 -40 -3 -27 -15 -32 -24 -32 -55 0 -26 4 -38 14 -38 8 0 17 -6 19
-12 4 -10 6 -10 6 0 1 6 10 12 22 12 11 0 17 -4 14 -10 -3 -5 -1 -10 4 -10 6
0 11 4 11 8 0 5 14 7 30 6 20 -1 30 3 30 12 0 8 10 14 23 14 18 0 19 -2 7 -10
-13 -9 -13 -10 0 -11 36 -2 52 -9 69 -30 16 -19 21 -21 34 -11 10 9 16 9 19 2
2 -6 46 -13 103 -15 55 -3 134 -10 175 -15 41 -6 85 -10 98 -10 12 0 22 -4 22
-9 0 -5 28 -12 63 -16 34 -5 64 -9 67 -10 3 0 44 -7 93 -14 48 -7 90 -17 93
-22 3 -5 27 -9 54 -9 27 0 51 -4 54 -9 3 -4 33 -11 66 -15 33 -4 60 -11 60
-16 0 -6 18 -10 40 -10 36 0 85 -21 101 -42 3 -4 34 -10 69 -13 70 -5 93 -10
130 -28 29 -14 60 -43 60 -56 0 -6 13 -17 29 -27 15 -9 41 -42 57 -72 16 -30
36 -57 46 -60 9 -2 22 -17 28 -33 7 -16 15 -29 19 -29 3 0 17 -17 30 -38 14
-20 30 -41 35 -47 6 -5 19 -27 29 -49 10 -21 27 -40 37 -43 15 -4 20 -14 20
-39 0 -27 6 -36 30 -49 26 -13 30 -21 30 -55 0 -38 21 -117 40 -151 5 -9 12
-33 15 -53 4 -20 11 -39 16 -42 5 -3 9 -12 9 -21 0 -9 7 -24 16 -34 11 -12 18
-51 24 -131 5 -62 15 -141 23 -176 14 -64 12 -112 -4 -112 -24 0 2 -113 32
-140 3 -3 11 -21 19 -40 7 -19 19 -42 27 -51 7 -8 13 -22 13 -29 0 -7 6 -21
14 -29 7 -9 42 -81 76 -161 34 -80 68 -158 76 -174 8 -16 14 -34 14 -40 0 -6
9 -29 19 -51 10 -22 29 -69 41 -105 13 -36 30 -85 38 -110 9 -25 24 -64 34
-87 10 -24 18 -52 18 -63 0 -11 7 -37 15 -57 8 -19 15 -46 15 -59 0 -13 9 -47
19 -76 11 -29 25 -83 31 -120 l12 -68 1052 1 c763 0 1045 3 1029 11 -13 6 -23
15 -23 19 0 4 -16 13 -35 19 -19 6 -41 18 -49 25 -13 13 -34 25 -132 75 -27
14 -51 28 -54 31 -3 3 -26 14 -52 25 -27 10 -48 22 -48 26 0 3 -25 14 -55 23
-30 10 -55 21 -55 24 0 4 -28 16 -62 26 -35 10 -65 22 -68 26 -3 5 -42 16 -85
25 -44 9 -83 20 -86 25 -8 14 -242 14 -247 0 -2 -6 -10 -11 -17 -11 -23 0
-114 -33 -110 -40 2 -4 -18 -13 -45 -20 -31 -9 -50 -20 -53 -32 -7 -24 -34
-23 -47 2 -6 11 -8 20 -4 20 3 0 2 6 -4 13 -6 7 -9 27 -7 45 3 24 0 32 -11 32
-12 0 -12 4 3 25 10 13 23 25 30 25 6 0 20 11 31 25 11 14 34 30 52 36 19 7
29 16 26 25 -5 14 28 29 55 26 8 -2 26 2 40 7 14 6 18 10 9 11 -52 5 -70 5
-70 -1 0 -4 -20 -10 -44 -13 -24 -4 -54 -16 -67 -26 -12 -11 -25 -20 -29 -20
-3 0 -22 -14 -41 -31 -29 -26 -34 -28 -38 -13 -2 10 6 24 17 32 12 8 31 22 42
32 12 11 37 24 56 30 19 7 34 15 34 20 0 16 100 32 255 40 88 5 162 9 165 9 2
1 -2 7 -9 14 -19 19 -290 17 -309 -3 -12 -11 -16 -12 -20 -2 -4 14 -32 16 -32
2 0 -5 -6 -10 -13 -10 -41 0 -118 -34 -158 -70 -24 -22 -46 -40 -49 -40 -3 0
-13 14 -22 31 -21 36 -24 79 -5 79 8 1 6 5 -4 13 -17 12 -18 54 -4 77 6 9 2 9
-13 1 -30 -16 -34 -14 -31 17 2 15 0 33 -5 40 -4 7 -5 16 -1 20 4 4 10 1 12
-6 7 -18 32 16 33 43 0 12 -3 15 -8 9 -4 -6 -17 -16 -29 -23 -29 -15 -31 1 -3
36 11 14 20 31 20 37 0 6 -5 3 -11 -6 -13 -23 -29 -23 -29 -1 0 12 -7 8 -25
-13 l-25 -29 0 28 c0 16 9 41 20 55 11 15 28 37 38 50 41 54 136 142 153 142
18 0 39 61 39 112 0 29 -5 80 -11 113 -6 33 -14 89 -18 125 -5 36 -16 92 -25
125 -10 33 -24 85 -33 115 -16 56 -42 132 -71 205 -47 120 -184 367 -216 387
-6 4 -7 8 -3 8 5 0 -12 24 -37 54 -25 29 -46 56 -46 59 0 3 -18 25 -40 47 -22
22 -40 45 -40 50 0 6 -4 10 -8 10 -4 0 -44 35 -89 78 -90 86 -126 117 -163
141 -14 9 -34 24 -44 33 -11 10 -28 20 -38 24 -10 3 -18 9 -18 13 0 4 -18 16
-40 26 -22 10 -40 21 -40 25 0 4 -20 15 -45 24 -25 10 -45 22 -45 27 0 5 -7 9
-15 9 -17 0 -97 38 -105 50 -3 4 -21 15 -40 25 -19 10 -37 21 -40 24 -3 4 -24
15 -47 25 -24 11 -43 23 -43 27 0 4 -17 13 -37 19 -21 7 -42 18 -48 24 -5 7
-17 16 -25 19 -8 4 0 4 19 1 19 -4 41 -13 49 -21 8 -7 34 -19 58 -25 24 -7 44
-16 44 -20 0 -4 17 -15 38 -25 20 -9 39 -20 42 -23 10 -11 58 -29 64 -23 8 9
-19 31 -48 39 -14 3 -26 10 -26 15 0 5 -5 9 -10 9 -6 0 -16 5 -23 10 -7 6 -33
24 -59 41 -26 17 -50 38 -53 48 -8 25 -53 45 -70 31 -9 -8 -15 -8 -20 0 -3 5
-16 10 -28 10 -19 1 -18 3 8 14 l30 13 -38 7 c-47 9 -87 26 -87 38 0 4 7 8 15
8 8 0 15 -4 15 -10 0 -12 27 -13 34 -1 6 9 -79 41 -108 41 -8 0 -16 4 -18 9
-1 6 -39 17 -83 26 -44 9 -82 20 -85 25 -3 4 -45 16 -95 25 -49 10 -92 21 -95
25 -3 3 -44 14 -92 24 -49 10 -88 22 -88 25 0 4 -53 16 -117 26 -65 10 -121
23 -124 27 -3 5 -77 18 -165 30 -87 12 -161 24 -164 28 -3 3 -16 7 -30 8 -14
1 -83 7 -155 13 -72 5 -153 12 -180 15 -28 3 -52 4 -55 1z m-70 -37 c0 -5 -2
-10 -4 -10 -3 0 -8 5 -11 10 -3 6 -1 10 4 10 6 0 11 -4 11 -10z m30 0 c0 -5
-4 -10 -10 -10 -5 0 -10 5 -10 10 0 6 5 10 10 10 6 0 10 -4 10 -10z m35 0 c3
-5 1 -10 -4 -10 -6 0 -11 5 -11 10 0 6 2 10 4 10 3 0 8 -4 11 -10z m35 0 c0
-5 -5 -10 -11 -10 -5 0 -7 5 -4 10 3 6 8 10 11 10 2 0 4 -4 4 -10z m188 -17
c-10 -2 -26 -2 -35 0 -10 3 -2 5 17 5 19 0 27 -2 18 -5z m109 -9 c-3 -3 -12
-4 -19 -1 -8 3 -5 6 6 6 11 1 17 -2 13 -5z m-74 -16 c70 -6 127 -15 127 -19 0
-4 30 -10 66 -14 36 -4 64 -9 61 -11 -8 -8 -232 20 -239 30 -4 6 -117 12 -275
16 l-268 7 200 1 c110 1 257 -3 328 -10z m160 5 c-7 -2 -21 -2 -30 0 -10 3 -4
5 12 5 17 0 24 -2 18 -5z m74 -9 c-3 -3 -12 -4 -19 -1 -8 3 -5 6 6 6 11 1 17
-2 13 -5z m93 -14 c0 -5 -7 -10 -16 -10 -8 0 -12 5 -9 10 3 6 10 10 16 10 5 0
9 -4 9 -10z m53 -17 c-7 -2 -19 -2 -25 0 -7 3 -2 5 12 5 14 0 19 -2 13 -5z
m64 -9 c-3 -3 -12 -4 -19 -1 -8 3 -5 6 6 6 11 1 17 -2 13 -5z m-134 -11 c-7
-2 -19 -2 -25 0 -7 3 -2 5 12 5 14 0 19 -2 13 -5z m204 1 c-3 -3 -12 -4 -19
-1 -8 3 -5 6 6 6 11 1 17 -2 13 -5z m298 -64 c3 -5 -3 -10 -14 -10 -12 0 -21
5 -21 10 0 6 6 10 14 10 8 0 18 -4 21 -10z m108 -27 c-7 -2 -21 -2 -30 0 -10
3 -4 5 12 5 17 0 24 -2 18 -5z m107 -25 c0 -4 -11 -8 -25 -8 -14 0 -25 4 -25
8 0 4 11 8 25 8 14 0 25 -4 25 -8z m127 -34 c-3 -3 -12 -4 -19 -1 -8 3 -5 6 6
6 11 1 17 -2 13 -5z m140 -66 c-3 -8 -6 -5 -6 6 -1 11 2 17 5 13 3 -3 4 -12 1
-19z m1560 -2950 c-3 -8 -6 -5 -6 6 -1 11 2 17 5 13 3 -3 4 -12 1 -19z"/>
<path d="M4786 3581 c-4 -5 -2 -12 3 -15 5 -4 12 -2 15 3 4 5 2 12 -3 15 -5 4
-12 2 -15 -3z"/>
<path d="M4811 3514 c0 -11 3 -14 6 -6 3 7 2 16 -1 19 -3 4 -6 -2 -5 -13z"/>
<path d="M5868 3523 c6 -2 18 -2 25 0 6 3 1 5 -13 5 -14 0 -19 -2 -12 -5z"/>
<path d="M5788 3513 c6 -2 18 -2 25 0 6 3 1 5 -13 5 -14 0 -19 -2 -12 -5z"/>
<path d="M5720 3503 c-8 -4 -21 -12 -28 -20 -7 -7 -21 -13 -30 -13 -14 0 -15
2 -2 10 8 5 11 12 8 16 -4 3 -14 -1 -22 -9 -12 -12 -13 -17 -3 -21 6 -4 2 -4
-9 -2 -12 2 -28 0 -35 -5 -10 -6 -11 -9 -1 -9 6 0 12 -4 12 -10 0 -5 -7 -10
-15 -10 -8 0 -15 4 -15 10 0 5 -11 0 -24 -11 -14 -12 -22 -28 -19 -35 3 -8 0
-14 -6 -14 -6 0 -11 5 -11 11 0 6 -8 1 -19 -12 -10 -13 -16 -29 -14 -36 3 -7
1 -13 -5 -13 -9 0 -52 -63 -52 -77 0 -3 7 0 15 7 8 7 15 17 15 22 0 11 57 67
115 113 20 17 43 36 51 43 7 7 34 20 59 28 25 9 45 20 45 24 0 5 10 11 23 13
18 4 19 4 2 5 -11 0 -27 -2 -35 -5z m-140 -78 c0 -2 -10 -9 -22 -15 -22 -11
-22 -10 -4 4 21 17 26 19 26 11z m-60 -49 c0 -2 -8 -10 -17 -17 -16 -13 -17
-12 -4 4 13 16 21 21 21 13z"/>
<path d="M4855 3470 c-4 -7 0 -19 9 -28 14 -15 15 -14 11 7 -6 30 -11 35 -20
21z"/>
<path d="M8370 3441 c6 -12 14 -21 18 -21 5 0 17 -8 28 -18 23 -21 71 -52 80
-52 3 0 0 8 -7 17 -12 15 -12 16 4 10 32 -12 17 9 -30 43 -27 18 -42 26 -34
17 12 -15 11 -17 -8 -17 -11 0 -21 4 -21 10 0 5 -9 14 -21 20 -19 11 -20 10
-9 -9z m110 -51 c0 -14 -9 -12 -26 4 -20 21 -17 28 6 16 11 -6 20 -15 20 -20z"/>
<path d="M8520 3366 c0 -3 9 -10 20 -16 11 -6 20 -8 20 -6 0 3 -9 10 -20 16
-11 6 -20 8 -20 6z"/>
<path d="M1955 3270 c3 -5 16 -10 28 -10 18 0 19 2 7 10 -20 13 -43 13 -35 0z"/>
<path d="M2018 3253 c7 -3 16 -2 19 1 4 3 -2 6 -13 5 -11 0 -14 -3 -6 -6z"/>
<path d="M5785 3249 c-11 -16 -1 -19 13 -3 7 8 8 14 3 14 -5 0 -13 -5 -16 -11z"/>
<path d="M5750 3244 c0 -5 -13 -18 -30 -27 -56 -34 -180 -179 -180 -212 0 -10
55 17 72 35 9 10 25 24 35 32 31 22 93 101 93 117 0 11 -4 10 -15 -5 -15 -19
-15 -19 -8 1 4 11 16 27 28 37 11 9 17 20 13 24 -5 4 -8 3 -8 -2z m-64 -95
c-8 -11 -25 -28 -38 -37 l-23 -16 20 25 c19 23 47 48 53 49 2 0 -3 -9 -12 -21z"/>
<path d="M10006 3195 c4 -8 8 -15 10 -15 2 0 4 7 4 15 0 8 -4 15 -10 15 -5 0
-7 -7 -4 -15z"/>
<path d="M9892 3180 c0 -14 2 -19 5 -12 2 6 2 18 0 25 -3 6 -5 1 -5 -13z"/>
<path d="M5300 3172 c0 -4 9 -15 20 -25 22 -19 29 0 8 21 -14 14 -28 16 -28 4z"/>
<path d="M9956 3171 c-4 -7 -5 -15 -2 -18 9 -9 19 4 14 18 -4 11 -6 11 -12 0z"/>
<path d="M9772 3135 c0 -16 2 -22 5 -12 2 9 2 23 0 30 -3 6 -5 -1 -5 -18z"/>
<path d="M4901 3134 c0 -11 3 -14 6 -6 3 7 2 16 -1 19 -3 4 -6 -2 -5 -13z"/>
<path d="M9840 3129 c0 -11 5 -17 10 -14 6 3 10 13 10 21 0 8 -4 14 -10 14 -5
0 -10 -9 -10 -21z"/>
<path d="M5351 3113 c-1 -23 57 -95 71 -87 14 9 9 21 -12 27 -12 3 -20 14 -20
26 0 12 -6 21 -14 21 -8 0 -17 8 -19 18 -4 13 -5 12 -6 -5z"/>
<path d="M9290 3116 c0 -2 8 -10 18 -17 15 -13 16 -12 3 4 -13 16 -21 21 -21
13z"/>
<path d="M9900 3110 c0 -5 5 -10 10 -10 6 0 10 5 10 10 0 6 -4 10 -10 10 -5 0
-10 -4 -10 -10z"/>
<path d="M9807 3091 c-4 -17 -3 -21 5 -13 5 5 8 16 6 23 -3 8 -7 3 -11 -10z"/>
<path d="M9772 3080 c0 -14 2 -19 5 -12 2 6 2 18 0 25 -3 6 -5 1 -5 -13z"/>
<path d="M9980 3090 c0 -5 5 -10 10 -10 6 0 10 5 10 10 0 6 -4 10 -10 10 -5 0
-10 -4 -10 -10z"/>
<path d="M9930 3040 c0 -5 5 -10 10 -10 6 0 10 5 10 10 0 6 -4 10 -10 10 -5 0
-10 -4 -10 -10z"/>
<path d="M9821 3014 c0 -11 3 -14 6 -6 3 7 2 16 -1 19 -3 4 -6 -2 -5 -13z"/>
<path d="M2340 2990 c0 -6 12 -15 26 -20 35 -14 37 -13 14 10 -22 22 -40 26
-40 10z"/>
<path d="M8950 2992 c0 -7 15 -22 34 -33 19 -11 37 -26 40 -34 3 -8 13 -15 23
-14 16 0 16 1 -2 9 -11 5 -16 9 -10 9 5 1 -8 13 -30 28 -22 14 -43 31 -47 37
-5 7 -8 7 -8 -2z"/>
<path d="M6920 2866 c0 -3 9 -10 20 -16 11 -6 20 -8 20 -6 0 3 -9 10 -20 16
-11 6 -20 8 -20 6z"/>
<path d="M9840 2836 c0 -8 4 -17 9 -20 5 -4 7 3 4 14 -6 23 -13 26 -13 6z"/>
<path d="M6970 2830 c0 -5 4 -10 8 -10 5 0 26 -16 48 -35 21 -19 42 -35 45
-35 5 0 18 -10 84 -69 11 -10 30 -23 43 -30 12 -7 20 -16 17 -22 -4 -5 0 -9 8
-9 12 0 46 -25 102 -77 35 -33 48 -38 33 -14 -7 12 -15 21 -18 21 -3 0 -17 10
-32 23 -15 12 -43 36 -64 52 -20 17 -48 40 -62 53 -14 12 -28 22 -31 22 -4 0
-21 12 -38 28 -18 15 -47 38 -64 52 -18 14 -40 33 -51 43 -21 19 -28 21 -28 7z"/>
<path d="M9910 2731 c0 -6 5 -13 10 -16 6 -3 10 1 10 9 0 9 -4 16 -10 16 -5 0
-10 -4 -10 -9z"/>
<path d="M0 2676 c0 -30 4 -36 21 -36 11 0 18 -4 14 -9 -3 -5 -1 -12 5 -16 5
-3 10 1 10 9 0 17 16 22 22 7 4 -11 78 -21 180 -24 43 -1 78 -5 78 -9 0 -5 7
-8 15 -8 8 0 15 -5 15 -11 0 -6 15 -10 33 -8 17 1 43 -1 57 -4 14 -3 51 -11
83 -18 31 -7 57 -16 57 -22 0 -5 12 -6 26 -3 15 4 23 3 20 -2 -3 -6 2 -12 12
-15 9 -2 25 -8 35 -12 10 -4 17 -3 17 4 0 6 -6 11 -14 11 -8 0 -21 6 -28 13
-7 7 -36 22 -63 32 -28 11 -56 25 -63 32 -7 7 -23 13 -34 13 -21 0 -88 16
-123 30 -72 28 -115 40 -147 40 -20 0 -38 6 -41 13 -3 9 -9 9 -26 -1 -11 -7
-21 -8 -21 -3 0 8 -32 17 -102 27 -38 6 -38 6 -38 -30z"/>
<path d="M8932 2678 c9 -13 26 -25 39 -26 l23 -4 -25 26 c-31 34 -58 36 -37 4z"/>
<path d="M9991 2684 c0 -11 3 -14 6 -6 3 7 2 16 -1 19 -3 4 -6 -2 -5 -13z"/>
<path d="M9206 2637 c2 -7 14 -18 25 -25 19 -12 20 -12 3 13 -17 26 -37 35
-28 12z"/>
<path d="M9716 2632 c-3 -5 11 -16 30 -27 19 -10 34 -21 34 -25 0 -4 12 -15
28 -25 21 -13 19 -10 -9 17 -59 54 -78 68 -83 60z"/>
<path d="M2 2532 c3 -13 21 -19 88 -28 47 -6 92 -8 100 -4 9 5 -3 11 -35 15
-28 4 -52 11 -55 15 -3 4 -27 10 -53 13 -43 6 -48 5 -45 -11z"/>
<path d="M9640 2532 c0 -5 12 -14 28 -21 l27 -13 -22 21 c-24 23 -33 26 -33
13z"/>
<path d="M7391 2492 c7 -11 20 -24 31 -31 16 -10 17 -9 7 7 -7 11 -20 24 -31
31 -16 10 -17 9 -7 -7z"/>
<path d="M238 2493 c7 -3 16 -2 19 1 4 3 -2 6 -13 5 -11 0 -14 -3 -6 -6z"/>
<path d="M723 2486 c0 -11 20 -23 61 -36 34 -10 57 -19 51 -20 -13 -1 65 -40
81 -40 6 0 14 -7 18 -15 3 -8 11 -15 18 -15 19 -1 89 -35 83 -41 -2 -3 16 -13
40 -24 25 -10 45 -22 45 -27 0 -9 56 -36 74 -36 5 0 13 -7 18 -16 10 -17 38
-22 38 -7 0 5 -16 19 -35 31 -19 12 -35 26 -35 31 0 5 -16 15 -35 23 -19 8
-35 19 -35 25 0 5 -10 13 -22 17 -31 9 -192 86 -198 95 -3 3 -28 14 -57 23
-28 10 -53 21 -55 26 -2 5 -15 11 -29 15 -19 5 -26 3 -26 -9z"/>
<path d="M4275 2480 c-3 -5 -1 -10 5 -10 6 0 8 -5 4 -12 -4 -7 -3 -8 4 -4 14
9 16 36 3 36 -6 0 -13 -4 -16 -10z"/>
<path d="M9900 2482 c0 -4 9 -13 20 -20 19 -12 20 -11 8 8 -13 20 -28 27 -28
12z"/>
<path d="M0 2460 c0 -5 10 -10 23 -10 18 0 19 2 7 10 -19 13 -30 13 -30 0z"/>
<path d="M7460 2430 c6 -11 13 -20 16 -20 2 0 0 9 -6 20 -6 11 -13 20 -16 20
-2 0 0 -9 6 -20z"/>
<path d="M9981 2417 c2 -1 13 -9 24 -17 19 -14 19 -14 6 3 -7 9 -18 17 -24 17
-6 0 -8 -1 -6 -3z"/>
<path d="M0 2353 c0 -14 6 -23 15 -23 8 0 15 -4 15 -8 0 -4 19 -9 43 -10 38
-3 71 -7 192 -28 22 -4 42 -10 45 -15 3 -4 28 -10 55 -13 28 -3 42 -3 33 0
-10 3 -18 12 -18 20 0 7 -8 13 -17 12 -34 -4 -93 14 -93 28 0 8 -4 14 -10 14
-5 0 -10 -4 -10 -10 0 -5 -9 -10 -21 -10 -11 0 -18 4 -14 9 3 5 1 12 -5 16 -5
3 -10 -2 -11 -12 0 -10 -3 -13 -6 -5 -2 6 -11 12 -19 12 -8 0 -14 4 -14 8 0
11 -19 13 -90 14 -30 0 -58 5 -62 12 -5 6 -8 2 -8 -11z"/>
<path d="M0 2207 c0 -18 12 -30 49 -51 27 -14 51 -30 53 -35 2 -5 21 -11 43
-14 22 -2 53 -10 68 -16 41 -16 68 -14 61 4 -4 8 -11 15 -18 15 -6 0 -12 9
-13 20 -2 17 3 19 43 15 52 -5 64 -11 64 -31 0 -8 10 -14 24 -14 14 0 28 -4
31 -10 3 -5 19 -10 35 -10 15 0 30 -5 32 -11 4 -12 79 -41 87 -34 6 7 -4 16
-21 19 -7 1 -19 5 -25 9 -7 5 -17 6 -21 3 -5 -3 -9 1 -9 10 0 14 29 11 52 -6
6 -4 24 -10 40 -14 38 -9 175 -75 175 -85 0 -4 20 -15 45 -25 25 -11 45 -23
45 -27 0 -5 14 -16 30 -24 29 -15 70 -51 178 -152 24 -24 46 -43 47 -43 2 0
23 -18 46 -40 24 -22 47 -40 52 -40 4 0 6 -4 3 -9 -3 -5 1 -11 8 -14 18 -7 86
-112 86 -131 0 -19 -52 -36 -135 -43 -38 -4 -76 -12 -83 -20 -7 -7 -27 -13
-43 -13 -16 0 -29 -3 -29 -8 0 -4 23 -32 50 -62 28 -30 61 -70 73 -87 30 -44
57 -53 165 -57 51 -2 95 -6 99 -9 3 -4 13 -7 20 -7 17 0 44 -25 58 -54 5 -11
26 -24 45 -29 55 -13 93 -76 55 -91 -8 -3 -15 -11 -15 -18 0 -10 3 -9 9 1 7
11 12 10 22 -8 8 -11 18 -21 23 -21 13 0 77 -70 86 -95 4 -10 5 -27 2 -37 -4
-16 -6 -16 -16 -4 -17 21 -141 29 -156 11 -19 -23 3 -41 57 -49 26 -3 54 -13
64 -22 24 -22 52 -14 59 16 l6 25 8 -22 c4 -13 14 -23 22 -23 8 0 20 -11 26
-25 6 -14 17 -25 25 -25 7 0 13 -5 13 -11 0 -8 4 -8 13 -1 17 14 57 -11 57
-35 0 -11 7 -14 25 -11 14 3 25 1 25 -4 0 -5 12 -8 27 -6 22 2 28 -2 35 -27
14 -48 17 -57 31 -115 7 -30 18 -64 24 -75 6 -11 14 -49 17 -85 4 -35 12 -73
18 -84 12 -21 37 -155 38 -193 0 -13 -4 -23 -8 -23 -5 0 -17 48 -28 107 -11
64 -25 113 -35 122 -15 15 -22 41 -38 141 -6 42 -37 99 -53 100 -3 0 -5 -16
-2 -35 3 -26 1 -35 -11 -35 -14 0 -21 37 -16 78 1 8 -6 16 -17 19 -11 2 -25
16 -31 30 -7 14 -13 24 -15 22 -6 -6 32 -181 42 -199 5 -9 13 -36 17 -60 4
-25 11 -49 15 -55 5 -5 16 -45 24 -89 9 -43 22 -96 29 -117 l12 -39 77 0 77 0
-10 33 c-5 17 -14 59 -19 92 -17 110 -54 262 -101 415 -31 100 -34 120 -21
120 12 0 52 -57 52 -73 0 -7 5 -18 10 -23 23 -23 74 -183 83 -259 3 -22 14
-83 26 -135 11 -52 21 -111 21 -132 l0 -38 71 0 c61 0 70 2 65 16 -3 9 -9 28
-12 42 -3 15 -14 47 -24 72 -10 25 -27 70 -38 100 -11 30 -24 64 -28 75 -4 11
-8 22 -9 25 -9 25 -20 51 -36 86 -10 23 -19 48 -19 55 0 8 -6 23 -14 34 -7 11
-17 36 -21 55 -4 19 -13 44 -20 55 -7 11 -16 35 -19 52 -4 17 -14 37 -22 44
-8 6 -14 20 -14 30 0 10 -5 21 -10 24 -6 4 -17 22 -25 41 -8 20 -28 56 -45 80
-16 25 -30 47 -30 50 0 3 -16 25 -35 48 -19 24 -35 48 -35 54 0 6 -9 16 -20
22 -11 6 -20 16 -20 22 0 6 -7 18 -15 27 -13 14 -43 51 -98 121 -7 8 -31 38
-54 67 -24 28 -43 55 -43 61 0 6 -9 14 -20 17 -11 3 -20 13 -20 21 0 8 -4 14
-9 14 -4 0 -23 16 -42 35 -19 19 -38 35 -44 35 -5 0 -23 14 -39 30 -16 17 -33
30 -38 30 -4 0 -8 5 -8 11 0 6 -25 34 -56 62 -31 29 -71 66 -89 82 -18 17 -47
41 -64 55 -18 14 -47 37 -65 53 -19 15 -38 27 -43 27 -5 0 -23 14 -41 30 -18
17 -39 30 -46 30 -7 0 -26 11 -42 25 -16 14 -44 28 -61 31 -18 3 -33 10 -33
15 0 4 -22 16 -50 26 -27 10 -50 21 -50 25 0 3 -22 14 -50 23 -27 9 -50 20
-50 24 0 5 -23 11 -51 14 -48 6 -119 26 -129 37 -3 3 -45 14 -95 24 -49 10
-93 22 -96 27 -3 5 -41 13 -85 19 -105 13 -134 20 -134 31 0 5 -16 9 -35 9
-30 0 -35 -3 -35 -23z m1798 -1368 c2 -32 1 -33 -13 -15 -18 24 -20 59 -2 54
6 -3 13 -20 15 -39z"/>
<path d="M1267 2194 c-3 -4 2 -14 11 -24 21 -21 62 -44 62 -33 -1 23 -61 69
-73 57z"/>
<path d="M9877 2174 c3 -8 19 -22 35 -30 16 -8 26 -19 23 -24 -3 -5 3 -11 14
-15 10 -3 31 -17 45 -32 17 -17 26 -21 26 -12 0 17 -51 64 -92 85 -15 8 -28
18 -28 23 0 5 -7 11 -14 14 -10 4 -13 1 -9 -9z"/>
<path d="M0 2143 c0 -5 5 -15 10 -23 8 -12 10 -11 10 8 0 12 -4 22 -10 22 -5
0 -10 -3 -10 -7z"/>
<path d="M4335 2120 c-3 -5 1 -10 9 -10 9 0 16 5 16 10 0 6 -4 10 -9 10 -6 0
-13 -4 -16 -10z"/>
<path d="M1360 2116 c0 -2 8 -10 18 -17 15 -13 16 -12 3 4 -13 16 -21 21 -21
13z"/>
<path d="M2 1953 l3 -148 35 -16 c19 -9 43 -15 52 -14 9 2 22 -3 28 -10 9 -11
4 -21 -25 -46 -22 -20 -32 -36 -27 -41 11 -11 232 21 232 33 0 12 87 11 92 0
2 -5 15 -13 30 -16 l27 -7 -15 49 c-8 26 -23 55 -34 65 -11 9 -20 22 -20 30 0
16 -119 128 -137 128 -7 0 -13 4 -13 8 0 5 -16 17 -35 28 -19 10 -35 22 -35
26 0 4 -25 15 -55 24 -30 10 -55 21 -55 26 0 4 -7 8 -15 8 -8 0 -15 5 -15 10
0 6 -5 10 -10 10 -7 0 -10 -51 -8 -147z"/>
<path d="M4355 2020 c3 -5 10 -10 16 -10 5 0 9 5 9 10 0 6 -7 10 -16 10 -8 0
-12 -4 -9 -10z"/>
<path d="M3316 1995 c9 -14 18 -25 20 -25 2 0 -2 11 -8 25 -6 14 -15 25 -20
25 -5 0 -1 -11 8 -25z"/>
<path d="M4413 1933 c9 -2 23 -2 30 0 6 3 -1 5 -18 5 -16 0 -22 -2 -12 -5z"/>
<path d="M4488 1933 c12 -2 30 -2 40 0 9 3 -1 5 -23 4 -22 0 -30 -2 -17 -4z"/>
<path d="M9680 1746 c0 -12 66 -76 78 -76 8 0 12 -6 9 -14 -6 -15 28 -54 87
-101 20 -16 50 -41 65 -55 63 -56 95 -79 100 -73 3 3 0 8 -6 10 -7 3 -13 11
-13 18 0 13 -184 203 -236 242 -68 53 -84 62 -84 49z"/>
<path d="M547 1733 c-4 -3 -7 -19 -7 -35 0 -22 -5 -28 -21 -28 -15 0 -20 -5
-17 -22 2 -18 11 -23 38 -25 85 -6 154 -29 183 -60 12 -12 30 -23 40 -23 29 0
16 31 -20 49 -18 9 -33 22 -33 29 0 6 -4 12 -10 12 -5 0 -26 16 -46 35 -19 19
-40 35 -45 35 -5 0 -9 6 -9 14 0 20 -39 34 -53 19z"/>
<path d="M3421 1704 c0 -11 3 -14 6 -6 3 7 2 16 -1 19 -3 4 -6 -2 -5 -13z"/>
<path d="M5175 1710 c3 -5 8 -10 11 -10 2 0 4 5 4 10 0 6 -5 10 -11 10 -5 0
-7 -4 -4 -10z"/>
<path d="M4630 1690 c8 -5 22 -9 30 -9 10 0 8 3 -5 9 -27 12 -43 12 -25 0z"/>
<path d="M4719 1685 c18 -8 40 -15 47 -15 8 0 14 -6 14 -14 0 -8 14 -17 31
-21 35 -8 54 3 21 12 -12 3 -22 9 -22 14 0 4 -23 15 -52 24 -65 19 -84 19 -39
0z"/>
<path d="M10 1670 c-8 -5 -11 -12 -8 -16 4 -3 14 1 23 10 18 17 9 21 -15 6z"/>
<path d="M4880 1662 c0 -4 8 -12 19 -17 63 -33 134 -65 156 -71 14 -3 23 -9
20 -13 -2 -4 13 -13 33 -20 20 -8 44 -19 52 -25 8 -6 31 -20 50 -30 19 -11 37
-22 40 -25 10 -12 63 -32 68 -26 4 3 -4 8 -16 12 -12 3 -22 9 -22 14 0 9 -36
29 -122 69 -27 13 -48 26 -48 30 0 4 -20 15 -45 24 -25 10 -45 21 -45 25 0 4
-25 15 -55 26 -30 10 -55 22 -55 27 0 4 -7 8 -15 8 -8 0 -15 -3 -15 -8z"/>
<path d="M3434 1628 c19 -66 36 -186 42 -292 3 -65 10 -113 14 -106 5 8 9 9
11 1 2 -6 4 20 4 58 0 38 -3 67 -7 65 -7 -4 -13 30 -23 131 -7 63 -33 165 -42
165 -3 0 -2 -10 1 -22z"/>
<path d="M390 1558 c0 -16 5 -28 10 -28 13 0 13 20 0 40 -8 12 -10 9 -10 -12z"/>
<path d="M5136 1434 c-7 -18 26 -52 59 -60 14 -3 25 -10 25 -15 0 -5 7 -9 15
-9 8 0 15 -4 15 -10 0 -5 6 -10 14 -10 8 0 21 -6 28 -13 7 -7 28 -22 47 -33
19 -10 43 -27 53 -36 10 -10 24 -18 31 -18 8 0 24 -9 37 -20 18 -16 25 -17 32
-8 5 9 8 8 8 -5 0 -10 8 -21 18 -24 9 -4 28 -17 41 -30 13 -13 30 -23 37 -23
7 0 17 -6 21 -13 13 -22 102 -66 106 -54 2 8 9 6 20 -4 9 -9 13 -20 9 -23 -3
-4 1 -4 10 -1 11 4 18 0 23 -16 6 -17 9 -19 16 -8 8 12 11 12 18 -1 5 -8 19
-26 31 -40 16 -19 23 -21 29 -11 7 11 13 9 30 -8 11 -11 26 -21 31 -21 6 0 10
-8 10 -18 0 -11 12 -24 26 -30 14 -7 23 -8 19 -2 -3 5 -3 10 2 10 14 -1 43
-27 43 -39 0 -6 7 -11 15 -11 25 0 65 -23 65 -37 0 -7 7 -13 15 -13 23 0 7 27
-25 40 -16 7 -31 18 -34 26 -3 8 -12 14 -21 14 -8 0 -15 5 -15 10 0 6 -6 10
-13 10 -12 0 -53 29 -87 60 -8 9 -32 24 -53 33 -20 10 -37 22 -37 26 0 5 -16
16 -35 25 -19 9 -35 21 -35 26 0 5 -9 12 -20 15 -11 4 -32 17 -47 31 -14 13
-31 24 -38 24 -6 0 -20 9 -32 19 -11 11 -39 29 -62 40 -22 12 -41 25 -41 29 0
4 -18 16 -40 26 -22 11 -40 22 -40 26 0 3 -16 14 -35 23 -19 9 -35 20 -35 24
0 5 -20 17 -45 28 -25 11 -45 22 -45 26 0 3 -12 11 -27 18 -21 10 -28 9 -34
-1 -10 -15 -25 -2 -31 25 -1 11 -17 25 -35 32 -27 11 -32 11 -37 -1z m39 -15
c11 -16 1 -19 -13 -3 -7 8 -8 14 -3 14 5 0 13 -5 16 -11z m435 -280 c0 -6 -4
-7 -10 -4 -5 3 -10 11 -10 16 0 6 5 7 10 4 6 -3 10 -11 10 -16z"/>
<path d="M5333 1418 c1 -7 20 -21 42 -31 22 -10 42 -22 45 -26 6 -9 45 -31 55
-31 14 0 -48 49 -78 61 -17 7 -36 19 -40 26 -10 16 -28 17 -24 1z"/>
<path d="M5035 1370 c-8 -13 -1 -24 14 -19 6 3 7 10 2 18 -6 10 -10 10 -16 1z"/>
<path d="M5496 1316 c2 -6 20 -20 39 -30 19 -11 35 -22 35 -26 0 -4 9 -10 20
-13 33 -9 17 16 -22 35 -21 9 -38 21 -38 26 0 5 -9 12 -19 15 -12 3 -18 0 -15
-7z"/>
<path d="M5650 1215 c39 -29 41 -30 34 -11 -3 7 -16 18 -30 25 -39 18 -41 13
-4 -14z"/>
<path d="M0 1055 c0 -123 1 -126 26 -150 15 -14 44 -30 64 -35 21 -6 40 -17
43 -25 3 -7 25 -19 49 -26 24 -7 52 -21 64 -31 11 -10 25 -18 31 -18 5 0 23
-11 39 -25 16 -14 32 -25 35 -25 3 0 19 -12 35 -26 68 -60 104 -94 104 -98 0
-2 15 -19 33 -38 48 -50 77 -87 77 -98 0 -6 7 -10 15 -10 8 0 15 -4 15 -8 0
-9 67 -104 93 -134 8 -9 18 -25 22 -37 3 -12 10 -21 15 -21 5 0 12 -15 15 -33
4 -17 13 -39 20 -47 7 -8 16 -25 19 -37 4 -13 11 -23 16 -23 4 0 11 -15 14
-32 14 -69 14 -69 212 -66 l179 3 -27 24 c-16 14 -28 32 -28 42 0 10 -7 24
-15 33 -8 8 -15 22 -15 30 0 9 -4 16 -10 16 -5 0 -10 11 -10 24 0 13 -7 26
-15 30 -8 3 -15 15 -15 26 0 11 -7 23 -15 26 -8 4 -15 10 -15 15 0 6 -9 19
-20 31 -11 12 -20 27 -20 34 0 6 -7 14 -15 18 -8 3 -15 12 -15 19 0 8 -9 22
-20 32 -11 10 -20 22 -20 27 0 7 -8 17 -55 69 -8 9 -15 18 -15 22 0 8 -228
235 -273 272 -21 17 -52 42 -69 58 -17 15 -35 27 -40 27 -4 0 -16 8 -26 18
-34 31 -61 51 -93 68 -18 9 -37 20 -43 25 -19 17 -126 78 -146 84 -11 4 -20
10 -20 15 0 5 -16 14 -35 20 -19 6 -41 17 -48 23 -23 21 -56 37 -77 37 -19 0
-20 -6 -20 -125z"/>
<path d="M5731 1161 c13 -11 26 -17 29 -14 6 6 -30 33 -43 33 -5 0 1 -9 14
-19z"/>
<path d="M4340 1106 c0 -2 7 -6 15 -10 8 -3 15 -1 15 4 0 6 -7 10 -15 10 -8 0
-15 -2 -15 -4z"/>
<path d="M3426 1048 c-19 -22 -20 -22 -27 -3 -4 11 -8 15 -8 10 -1 -6 -16 -19
-33 -30 -18 -10 -39 -26 -46 -34 -48 -59 -53 -87 -10 -57 12 9 19 16 15 16
-15 0 18 27 41 34 12 4 20 10 18 14 -5 9 16 27 33 27 7 0 20 10 29 23 19 28
12 29 -12 0z"/>
<path d="M1493 960 c1 -20 22 -34 38 -24 13 7 -8 44 -26 44 -8 0 -13 -9 -12
-20z"/>
<path d="M6020 966 c0 -2 7 -9 15 -16 9 -7 15 -8 15 -2 0 5 -7 12 -15 16 -8 3
-15 4 -15 2z"/>
<path d="M3315 920 c-3 -6 1 -7 9 -4 18 7 21 14 7 14 -6 0 -13 -4 -16 -10z"/>
<path d="M6109 902 c5 -10 22 -24 38 -32 15 -8 32 -21 36 -27 11 -18 28 -16
21 1 -3 8 -19 20 -35 26 -16 7 -34 21 -40 31 -5 11 -14 19 -20 19 -6 0 -6 -6
0 -18z"/>
<path d="M6265 780 c3 -5 10 -10 16 -10 5 0 9 5 9 10 0 6 -7 10 -16 10 -8 0
-12 -4 -9 -10z"/>
<path d="M6306 758 c8 -13 47 -44 51 -41 2 2 14 -9 27 -22 14 -14 31 -25 39
-25 8 0 20 -7 27 -15 7 -8 17 -12 22 -9 5 4 -4 15 -21 25 -17 10 -31 23 -31
28 0 5 -10 11 -22 15 -13 3 -36 17 -52 31 -31 27 -52 33 -40 13z"/>
<path d="M6210 733 c1 -21 95 -87 111 -77 6 3 13 -3 16 -14 3 -11 16 -23 29
-26 13 -4 24 -13 24 -20 0 -11 46 -36 66 -36 1 0 -3 11 -9 24 -6 13 -30 31
-54 41 -23 10 -41 21 -38 25 2 4 -11 14 -30 23 -19 9 -35 21 -35 26 0 5 -15
16 -34 25 -38 18 -46 19 -46 9z"/>
<path d="M4010 646 c0 -9 5 -16 10 -16 6 0 10 4 10 9 0 6 -4 13 -10 16 -5 3
-10 -1 -10 -9z"/>
<path d="M6520 610 c0 -5 7 -10 15 -10 8 0 15 -7 15 -15 0 -8 6 -15 13 -15 10
0 66 -39 115 -81 18 -15 65 -39 76 -39 5 0 -8 16 -30 35 -21 19 -42 35 -45 35
-3 0 -19 11 -35 25 -16 14 -33 25 -38 25 -4 0 -21 11 -38 25 -31 26 -48 32
-48 15z"/>
<path d="M6483 548 c3 -18 18 -28 41 -28 17 0 17 2 -4 20 -26 23 -41 26 -37 8z"/>
<path d="M3630 470 c-9 -6 -10 -10 -3 -10 6 0 15 5 18 10 8 12 4 12 -15 0z"/>
<path d="M6585 470 c3 -5 8 -10 11 -10 2 0 4 5 4 10 0 6 -5 10 -11 10 -5 0 -7
-4 -4 -10z"/>
<path d="M4134 453 c18 -3 25 -8 18 -12 -7 -4 22 -15 65 -25 43 -10 81 -23 84
-28 3 -5 30 -15 60 -23 47 -12 52 -12 35 0 -11 8 -25 15 -32 15 -7 0 -14 4
-16 8 -1 4 -32 16 -67 25 -34 10 -70 24 -78 32 -9 9 -31 14 -56 14 -33 -2 -36
-3 -13 -6z"/>
<path d="M4597 453 c-13 -12 -7 -23 13 -23 11 0 20 -4 20 -10 0 -5 11 -10 25
-10 17 0 25 -6 25 -17 0 -14 2 -15 13 -4 10 10 8 14 -7 23 -10 5 -25 19 -34
29 -16 19 -43 25 -55 12z"/>
<path d="M6670 415 c7 -8 19 -15 27 -15 8 0 12 -4 9 -9 -3 -5 1 -12 9 -15 23
-8 0 30 -25 44 -27 14 -34 12 -20 -5z"/>
<path d="M4707 393 c-12 -11 -8 -23 7 -23 8 0 30 -13 48 -30 18 -16 38 -30 46
-30 7 0 15 -6 18 -14 3 -7 23 -21 45 -31 21 -10 39 -22 39 -26 0 -5 19 -17 43
-28 23 -11 38 -21 32 -21 -5 0 10 -10 35 -21 24 -11 47 -24 50 -28 3 -4 20
-14 38 -22 17 -8 32 -19 32 -26 0 -6 13 -14 30 -18 16 -4 39 -18 50 -32 11
-14 20 -22 20 -17 0 4 5 3 12 -4 7 -7 26 -12 42 -12 l30 0 -32 29 c-17 16 -41
32 -52 36 -11 3 -20 10 -20 15 0 5 -15 17 -32 26 -18 9 -37 23 -41 30 -4 8
-13 14 -18 14 -6 0 -32 14 -57 32 -93 63 -102 69 -124 78 -13 6 -39 20 -58 31
-72 44 -140 79 -140 71 0 -4 -5 1 -11 11 -11 18 -21 21 -32 10z"/>
<path d="M4503 313 c9 -2 17 -11 17 -19 0 -8 8 -14 18 -14 14 0 15 2 2 10 -13
9 -13 10 0 11 20 1 -19 18 -40 17 -10 0 -9 -2 3 -5z"/>
<path d="M5627 224 c-13 -13 -7 -24 13 -24 11 0 25 -9 32 -20 12 -19 38 -26
51 -14 13 13 -17 54 -39 54 -12 0 -29 2 -36 5 -8 3 -17 2 -21 -1z"/>
<path d="M7112 196 c7 -8 15 -12 17 -11 5 6 -10 25 -20 25 -5 0 -4 -6 3 -14z"/>
<path d="M7030 155 c0 -15 78 -61 87 -51 7 7 -59 65 -74 66 -7 0 -13 -7 -13
-15z"/>
<path d="M1713 70 c2 -43 6 -55 20 -58 19 -4 25 32 7 43 -5 3 -14 20 -19 38
-9 29 -10 26 -8 -23z"/>
<path d="M7185 62 c6 -4 15 -16 21 -27 6 -11 21 -22 34 -23 21 -3 20 -1 -11
27 -18 17 -38 31 -44 31 -7 0 -7 -3 0 -8z"/>
</g>
</svg>
